<svg width="55" height="55" viewBox="0 0 55 55" fill="none" xmlns="http://www.w3.org/2000/svg">
<path fill-rule="evenodd" clip-rule="evenodd" d="M7.33203 21.3459V38.2389C7.33203 44.4587 12.3742 49.5008 18.594 49.5008H35.4869C41.7067 49.5008 46.7489 44.4587 46.7489 38.2389V21.3459C46.7489 15.1261 41.7067 10.084 35.4869 10.084H18.594C12.3742 10.084 7.33203 15.1261 7.33203 21.3459Z" stroke="#293389" stroke-width="2" stroke-linecap="round" stroke-linejoin="round"/>
<path fill-rule="evenodd" clip-rule="evenodd" d="M19.3864 25.9657C18.6125 25.1919 18.381 24.0281 18.7998 23.017C19.2185 22.0059 20.2051 21.3467 21.2995 21.3467C22.3939 21.3467 23.3805 22.0059 23.7993 23.017C24.218 24.0281 23.9865 25.1919 23.2126 25.9657C22.156 27.0222 20.443 27.0222 19.3864 25.9657V25.9657Z" stroke="#293389" stroke-width="2" stroke-linecap="round"/>
<path fill-rule="evenodd" clip-rule="evenodd" d="M30.8669 37.4442C30.093 36.6704 29.8615 35.5066 30.2802 34.4955C30.699 33.4844 31.6856 32.8252 32.78 32.8252C33.8744 32.8252 34.861 33.4844 35.2797 34.4955C35.6985 35.5066 35.467 36.6704 34.6931 37.4442C33.6365 38.5007 31.9235 38.5007 30.8669 37.4442V37.4442Z" stroke="#293389" stroke-width="2" stroke-linecap="round"/>
<path d="M34.4869 12.8996C34.4869 13.4519 34.9346 13.8996 35.4869 13.8996C36.0392 13.8996 36.4869 13.4519 36.4869 12.8996H34.4869ZM36.4869 4.45312C36.4869 3.90084 36.0392 3.45312 35.4869 3.45312C34.9346 3.45312 34.4869 3.90084 34.4869 4.45312H36.4869ZM17.5938 12.8996C17.5938 13.4519 18.0415 13.8996 18.5938 13.8996C19.146 13.8996 19.5938 13.4519 19.5938 12.8996H17.5938ZM19.5938 4.45312C19.5938 3.90084 19.146 3.45312 18.5938 3.45312C18.0415 3.45312 17.5938 3.90084 17.5938 4.45312H19.5938ZM35.3986 22.8446C35.7891 22.4541 35.789 21.8209 35.3985 21.4304C35.0079 21.0399 34.3747 21.04 33.9842 21.4306L35.3986 22.8446ZM18.6764 36.7412C18.2859 37.1317 18.286 37.7649 18.6766 38.1554C19.0671 38.5459 19.7003 38.5458 20.0908 38.1553L18.6764 36.7412ZM36.4869 12.8996V4.45312H34.4869V12.8996H36.4869ZM19.5938 12.8996V4.45312H17.5938V12.8996H19.5938ZM33.9842 21.4306L18.6764 36.7412L20.0908 38.1553L35.3986 22.8446L33.9842 21.4306Z" fill="#293389"/>
</svg>
