<svg width="722" height="335" viewBox="0 0 722 335" fill="none" xmlns="http://www.w3.org/2000/svg">
<rect opacity="0.6" x="0.5" y="0.5" width="721" height="333.22" fill="white" stroke="#16293F"/>
<path d="M25.1626 26.3068H23.1683C23.0916 25.8807 22.9489 25.5057 22.7401 25.1818C22.5313 24.858 22.2756 24.5831 21.973 24.3572C21.6705 24.1314 21.3317 23.9609 20.9567 23.8459C20.5859 23.7308 20.1918 23.6733 19.7741 23.6733C19.0199 23.6733 18.3445 23.8629 17.7479 24.2422C17.1555 24.6214 16.6868 25.1776 16.3416 25.9105C16.0007 26.6435 15.8303 27.5384 15.8303 28.5952C15.8303 29.6605 16.0007 30.5597 16.3416 31.2926C16.6868 32.0256 17.1577 32.5795 17.7543 32.9545C18.3509 33.3295 19.022 33.517 19.7678 33.517C20.1811 33.517 20.5732 33.4616 20.9439 33.3509C21.3189 33.2358 21.6577 33.0675 21.9602 32.8459C22.2628 32.6243 22.5185 32.3537 22.7273 32.0341C22.9403 31.7102 23.0874 31.3395 23.1683 30.9219L25.1626 30.9283C25.0561 31.5717 24.8494 32.1641 24.5426 32.7053C24.2401 33.2422 23.8501 33.7067 23.3729 34.0987C22.8999 34.4865 22.3587 34.7869 21.7493 35C21.1399 35.2131 20.4751 35.3196 19.755 35.3196C18.6214 35.3196 17.6115 35.0511 16.7251 34.5142C15.8388 33.973 15.1399 33.1996 14.6286 32.1939C14.1214 31.1882 13.8679 29.9886 13.8679 28.5952C13.8679 27.1974 14.1236 25.9979 14.6349 24.9964C15.1463 23.9908 15.8452 23.2195 16.7315 22.6825C17.6179 22.1413 18.6257 21.8707 19.755 21.8707C20.4496 21.8707 21.0973 21.9709 21.6982 22.1712C22.3033 22.3672 22.8466 22.657 23.3281 23.0405C23.8097 23.4197 24.2081 23.8842 24.5234 24.4339C24.8388 24.9794 25.0518 25.6037 25.1626 26.3068ZM26.823 26.9716V25.3224H35.1071V26.9716H31.9047V35.1406H30.0382V26.9716H26.823ZM39.5288 35.358C38.9066 35.358 38.3441 35.2429 37.8413 35.0128C37.3384 34.7784 36.94 34.4396 36.646 33.9964C36.3562 33.5533 36.2113 33.0099 36.2113 32.3665C36.2113 31.8125 36.3178 31.3565 36.5309 30.9986C36.744 30.6406 37.0316 30.3572 37.3938 30.1484C37.756 29.9396 38.1609 29.782 38.6083 29.6754C39.0558 29.5689 39.5117 29.4879 39.9762 29.4325C40.5643 29.3643 41.0415 29.3089 41.408 29.2663C41.7745 29.2195 42.0408 29.1449 42.207 29.0426C42.3732 28.9403 42.4563 28.7741 42.4563 28.544V28.4993C42.4563 27.9411 42.2987 27.5085 41.9833 27.2017C41.6722 26.8949 41.2077 26.7415 40.5898 26.7415C39.9464 26.7415 39.4393 26.8842 39.0685 27.1697C38.7021 27.451 38.4485 27.7642 38.3079 28.1094L36.5117 27.7003C36.7248 27.1037 37.0359 26.6222 37.445 26.2557C37.8583 25.8849 38.3335 25.6165 38.8704 25.4503C39.4073 25.2798 39.9719 25.1946 40.5643 25.1946C40.9563 25.1946 41.3718 25.2415 41.8107 25.3352C42.2539 25.4247 42.6673 25.5909 43.0508 25.8338C43.4386 26.0767 43.756 26.424 44.0032 26.8757C44.2504 27.3232 44.3739 27.9048 44.3739 28.6207V35.1406H42.5075V33.7983H42.4308C42.3072 34.0455 42.1218 34.2884 41.8746 34.527C41.6275 34.7656 41.31 34.9638 40.9222 35.1214C40.5344 35.2791 40.07 35.358 39.5288 35.358ZM39.9442 33.8239C40.4727 33.8239 40.9244 33.7195 41.2994 33.5107C41.6786 33.3018 41.9663 33.0291 42.1623 32.6925C42.3626 32.3516 42.4627 31.9872 42.4627 31.5994V30.3338C42.3945 30.402 42.2624 30.4659 42.0664 30.5256C41.8746 30.581 41.6552 30.63 41.408 30.6726C41.1609 30.7109 40.9201 30.7472 40.6857 30.7812C40.4513 30.8111 40.2553 30.8366 40.0977 30.858C39.7269 30.9048 39.3881 30.9837 39.0813 31.0945C38.7788 31.2053 38.5359 31.3651 38.3526 31.5739C38.1737 31.7784 38.0842 32.0511 38.0842 32.392C38.0842 32.8651 38.2589 33.223 38.6083 33.4659C38.9577 33.7045 39.4031 33.8239 39.9442 33.8239ZM45.7019 26.9716V25.3224H53.986V26.9716H50.7836V35.1406H48.9171V26.9716H45.7019ZM57.8803 32.4624L62.2077 25.3224H64.266V35.1406H62.3931V27.9943L58.0849 35.1406H56.0075V25.3224H57.8803V32.4624ZM70.9712 35.3388C70.021 35.3388 69.2028 35.1236 68.5167 34.6932C67.8349 34.2585 67.3107 33.6598 66.9442 32.897C66.5778 32.1342 66.3945 31.2607 66.3945 30.2763C66.3945 29.2791 66.582 28.3991 66.957 27.6364C67.332 26.8693 67.8604 26.2706 68.5423 25.8402C69.2241 25.4098 70.0273 25.1946 70.9521 25.1946C71.6978 25.1946 72.3626 25.3331 72.9464 25.6101C73.5302 25.8828 74.0011 26.2663 74.359 26.7607C74.7212 27.255 74.9364 27.8324 75.0046 28.4929H73.1445C73.0423 28.0327 72.8079 27.6364 72.4414 27.304C72.0792 26.9716 71.5934 26.8054 70.984 26.8054C70.4513 26.8054 69.9847 26.946 69.5842 27.2273C69.1879 27.5043 68.8789 27.9006 68.6573 28.4162C68.4357 28.9276 68.3249 29.5327 68.3249 30.2315C68.3249 30.9474 68.4336 31.5653 68.6509 32.0852C68.8683 32.6051 69.1751 33.0078 69.5714 33.2933C69.9719 33.5788 70.4428 33.7216 70.984 33.7216C71.3462 33.7216 71.6744 33.6555 71.9684 33.5234C72.2667 33.3871 72.516 33.1932 72.7163 32.9418C72.9208 32.6903 73.0636 32.3878 73.1445 32.0341H75.0046C74.9364 32.669 74.7298 33.2358 74.3846 33.7344C74.0394 34.233 73.5771 34.625 72.9975 34.9105C72.4222 35.196 71.7468 35.3388 70.9712 35.3388ZM76.3054 26.9716V25.3224H84.5895V26.9716H81.3871V35.1406H79.5206V26.9716H76.3054ZM88.4838 32.4624L92.8113 25.3224H94.8695V35.1406H92.9966V27.9943L88.6884 35.1406H86.611V25.3224H88.4838V32.4624ZM97.4391 35.1406V25.3224H99.3503V29.4389H100.271L103.512 25.3224H105.877L102.073 30.0973L105.921 35.1406H103.55L100.59 31.2159H99.3503V35.1406H97.4391ZM110.263 35.358C109.641 35.358 109.078 35.2429 108.576 35.0128C108.073 34.7784 107.674 34.4396 107.38 33.9964C107.091 33.5533 106.946 33.0099 106.946 32.3665C106.946 31.8125 107.052 31.3565 107.265 30.9986C107.478 30.6406 107.766 30.3572 108.128 30.1484C108.49 29.9396 108.895 29.782 109.343 29.6754C109.79 29.5689 110.246 29.4879 110.711 29.4325C111.299 29.3643 111.776 29.3089 112.142 29.2663C112.509 29.2195 112.775 29.1449 112.941 29.0426C113.108 28.9403 113.191 28.7741 113.191 28.544V28.4993C113.191 27.9411 113.033 27.5085 112.718 27.2017C112.407 26.8949 111.942 26.7415 111.324 26.7415C110.681 26.7415 110.174 26.8842 109.803 27.1697C109.436 27.451 109.183 27.7642 109.042 28.1094L107.246 27.7003C107.459 27.1037 107.77 26.6222 108.179 26.2557C108.593 25.8849 109.068 25.6165 109.605 25.4503C110.142 25.2798 110.706 25.1946 111.299 25.1946C111.691 25.1946 112.106 25.2415 112.545 25.3352C112.988 25.4247 113.402 25.5909 113.785 25.8338C114.173 26.0767 114.49 26.424 114.738 26.8757C114.985 27.3232 115.108 27.9048 115.108 28.6207V35.1406H113.242V33.7983H113.165C113.042 34.0455 112.856 34.2884 112.609 34.527C112.362 34.7656 112.044 34.9638 111.657 35.1214C111.269 35.2791 110.804 35.358 110.263 35.358ZM110.679 33.8239C111.207 33.8239 111.659 33.7195 112.034 33.5107C112.413 33.3018 112.701 33.0291 112.897 32.6925C113.097 32.3516 113.197 31.9872 113.197 31.5994V30.3338C113.129 30.402 112.997 30.4659 112.801 30.5256C112.609 30.581 112.39 30.63 112.142 30.6726C111.895 30.7109 111.654 30.7472 111.42 30.7812C111.186 30.8111 110.99 30.8366 110.832 30.858C110.461 30.9048 110.123 30.9837 109.816 31.0945C109.513 31.2053 109.27 31.3651 109.087 31.5739C108.908 31.7784 108.819 32.0511 108.819 32.392C108.819 32.8651 108.993 33.223 109.343 33.4659C109.692 33.7045 110.137 33.8239 110.679 33.8239ZM122.418 35.1406V25.3224H130.427V35.1406H128.554V26.9716H124.278V35.1406H122.418ZM137.118 35.3388C136.197 35.3388 135.394 35.1278 134.708 34.706C134.022 34.2841 133.489 33.6939 133.11 32.9354C132.731 32.1768 132.541 31.2905 132.541 30.2763C132.541 29.2578 132.731 28.3672 133.11 27.6044C133.489 26.8416 134.022 26.2493 134.708 25.8274C135.394 25.4055 136.197 25.1946 137.118 25.1946C138.038 25.1946 138.841 25.4055 139.528 25.8274C140.214 26.2493 140.746 26.8416 141.126 27.6044C141.505 28.3672 141.694 29.2578 141.694 30.2763C141.694 31.2905 141.505 32.1768 141.126 32.9354C140.746 33.6939 140.214 34.2841 139.528 34.706C138.841 35.1278 138.038 35.3388 137.118 35.3388ZM137.124 33.7344C137.721 33.7344 138.215 33.5767 138.607 33.2614C138.999 32.946 139.289 32.5263 139.476 32.0021C139.668 31.478 139.764 30.9006 139.764 30.2699C139.764 29.6435 139.668 29.0682 139.476 28.544C139.289 28.0156 138.999 27.5916 138.607 27.272C138.215 26.9524 137.721 26.7926 137.124 26.7926C136.523 26.7926 136.025 26.9524 135.628 27.272C135.236 27.5916 134.944 28.0156 134.753 28.544C134.565 29.0682 134.471 29.6435 134.471 30.2699C134.471 30.9006 134.565 31.478 134.753 32.0021C134.944 32.5263 135.236 32.946 135.628 33.2614C136.025 33.5767 136.523 33.7344 137.124 33.7344ZM143.828 35.1406V25.3224H145.739V29.4389H146.659L149.9 25.3224H152.265L148.462 30.0973L152.31 35.1406H149.939L146.979 31.2159H145.739V35.1406H143.828ZM155.055 38.8224C154.77 38.8224 154.51 38.799 154.276 38.7521C154.041 38.7095 153.866 38.6626 153.751 38.6115L154.212 37.0455C154.561 37.1392 154.872 37.1797 155.145 37.1669C155.418 37.1541 155.658 37.0518 155.867 36.8601C156.08 36.6683 156.268 36.3551 156.43 35.9205L156.666 35.2685L153.074 25.3224H155.119L157.606 32.9418H157.708L160.195 25.3224H162.246L158.2 36.451C158.013 36.9624 157.774 37.3949 157.484 37.7486C157.195 38.1065 156.849 38.375 156.449 38.554C156.048 38.733 155.584 38.8224 155.055 38.8224ZM164.043 35.1406V25.3224H172.052V35.1406H170.179V26.9716H165.903V35.1406H164.043ZM174.607 35.1406V25.3224H176.518V29.4389H177.439L180.68 25.3224H183.045L179.241 30.0973L183.089 35.1406H180.718L177.758 31.2159H176.518V35.1406H174.607ZM186.447 32.4624L190.774 25.3224H192.832V35.1406H190.96V27.9943L186.651 35.1406H184.574V25.3224H186.447V32.4624ZM200.166 35.1406V25.3224H202.077V29.4389H202.997L206.238 25.3224H208.603L204.8 30.0973L208.648 35.1406H206.276L203.317 31.2159H202.077V35.1406H200.166ZM210.132 35.1406V25.3224H214.204C215.312 25.3224 216.19 25.5589 216.838 26.032C217.485 26.5007 217.809 27.1378 217.809 27.9432C217.809 28.5185 217.626 28.9744 217.26 29.3111C216.893 29.6477 216.407 29.8736 215.802 29.9886C216.241 30.0398 216.644 30.1719 217.01 30.3849C217.377 30.5937 217.671 30.875 217.892 31.2287C218.118 31.5824 218.231 32.0043 218.231 32.4943C218.231 33.0142 218.097 33.4744 217.828 33.875C217.56 34.2713 217.17 34.5824 216.659 34.8082C216.152 35.0298 215.54 35.1406 214.824 35.1406H210.132ZM211.929 33.5426H214.824C215.297 33.5426 215.668 33.4297 215.936 33.2038C216.205 32.978 216.339 32.6712 216.339 32.2834C216.339 31.8274 216.205 31.4695 215.936 31.2095C215.668 30.9453 215.297 30.8132 214.824 30.8132H211.929V33.5426ZM211.929 29.4134H214.223C214.581 29.4134 214.888 29.3622 215.144 29.2599C215.404 29.1577 215.602 29.0128 215.738 28.8253C215.879 28.6335 215.949 28.4077 215.949 28.1477C215.949 27.7685 215.794 27.4723 215.483 27.2592C215.172 27.0462 214.745 26.9396 214.204 26.9396H211.929V29.4134ZM223.185 35.358C222.563 35.358 222 35.2429 221.498 35.0128C220.995 34.7784 220.596 34.4396 220.302 33.9964C220.012 33.5533 219.868 33.0099 219.868 32.3665C219.868 31.8125 219.974 31.3565 220.187 30.9986C220.4 30.6406 220.688 30.3572 221.05 30.1484C221.412 29.9396 221.817 29.782 222.265 29.6754C222.712 29.5689 223.168 29.4879 223.632 29.4325C224.221 29.3643 224.698 29.3089 225.064 29.2663C225.431 29.2195 225.697 29.1449 225.863 29.0426C226.029 28.9403 226.113 28.7741 226.113 28.544V28.4993C226.113 27.9411 225.955 27.5085 225.64 27.2017C225.328 26.8949 224.864 26.7415 224.246 26.7415C223.603 26.7415 223.096 26.8842 222.725 27.1697C222.358 27.451 222.105 27.7642 221.964 28.1094L220.168 27.7003C220.381 27.1037 220.692 26.6222 221.101 26.2557C221.515 25.8849 221.99 25.6165 222.527 25.4503C223.064 25.2798 223.628 25.1946 224.221 25.1946C224.613 25.1946 225.028 25.2415 225.467 25.3352C225.91 25.4247 226.324 25.5909 226.707 25.8338C227.095 26.0767 227.412 26.424 227.659 26.8757C227.907 27.3232 228.03 27.9048 228.03 28.6207V35.1406H226.164V33.7983H226.087C225.963 34.0455 225.778 34.2884 225.531 34.527C225.284 34.7656 224.966 34.9638 224.578 35.1214C224.191 35.2791 223.726 35.358 223.185 35.358ZM223.6 33.8239C224.129 33.8239 224.581 33.7195 224.956 33.5107C225.335 33.3018 225.623 33.0291 225.819 32.6925C226.019 32.3516 226.119 31.9872 226.119 31.5994V30.3338C226.051 30.402 225.919 30.4659 225.723 30.5256C225.531 30.581 225.311 30.63 225.064 30.6726C224.817 30.7109 224.576 30.7472 224.342 30.7812C224.108 30.8111 223.912 30.8366 223.754 30.858C223.383 30.9048 223.044 30.9837 222.738 31.0945C222.435 31.2053 222.192 31.3651 222.009 31.5739C221.83 31.7784 221.74 32.0511 221.74 32.392C221.74 32.8651 221.915 33.223 222.265 33.4659C222.614 33.7045 223.059 33.8239 223.6 33.8239ZM230.576 38.8224V25.3224H232.442V26.9141H232.602C232.713 26.7095 232.873 26.473 233.081 26.2045C233.29 25.9361 233.58 25.7017 233.951 25.5014C234.322 25.2969 234.812 25.1946 235.421 25.1946C236.214 25.1946 236.921 25.3949 237.543 25.7955C238.165 26.196 238.653 26.7734 239.007 27.5277C239.365 28.282 239.544 29.1896 239.544 30.2507C239.544 31.3118 239.367 32.2216 239.013 32.9801C238.66 33.7344 238.174 34.3161 237.556 34.7251C236.938 35.13 236.233 35.3324 235.44 35.3324C234.844 35.3324 234.356 35.2322 233.976 35.032C233.601 34.8317 233.307 34.5973 233.094 34.3288C232.881 34.0604 232.717 33.8217 232.602 33.6129H232.487V38.8224H230.576ZM232.449 30.2315C232.449 30.9219 232.549 31.527 232.749 32.0469C232.949 32.5668 233.239 32.9737 233.618 33.2678C233.998 33.5575 234.462 33.7024 235.012 33.7024C235.583 33.7024 236.06 33.5511 236.444 33.2486C236.827 32.9418 237.117 32.5263 237.313 32.0021C237.513 31.478 237.613 30.8878 237.613 30.2315C237.613 29.5838 237.515 29.0021 237.319 28.4865C237.128 27.9709 236.838 27.5639 236.45 27.2656C236.067 26.9673 235.587 26.8182 235.012 26.8182C234.458 26.8182 233.989 26.9609 233.606 27.2464C233.226 27.532 232.939 27.9304 232.743 28.4418C232.547 28.9531 232.449 29.5497 232.449 30.2315ZM240.503 26.9716V25.3224H248.787V26.9716H245.584V35.1406H243.718V26.9716H240.503ZM252.681 32.4624L257.009 25.3224H259.067V35.1406H257.194V27.9943L252.886 35.1406H250.808V25.3224H252.681V32.4624ZM261.636 38.8224V25.3224H263.503V26.9141H263.663C263.773 26.7095 263.933 26.473 264.142 26.2045C264.351 25.9361 264.641 25.7017 265.011 25.5014C265.382 25.2969 265.872 25.1946 266.482 25.1946C267.274 25.1946 267.982 25.3949 268.604 25.7955C269.226 26.196 269.714 26.7734 270.067 27.5277C270.425 28.282 270.604 29.1896 270.604 30.2507C270.604 31.3118 270.428 32.2216 270.074 32.9801C269.72 33.7344 269.234 34.3161 268.616 34.7251C267.999 35.13 267.293 35.3324 266.501 35.3324C265.904 35.3324 265.416 35.2322 265.037 35.032C264.662 34.8317 264.368 34.5973 264.155 34.3288C263.942 34.0604 263.778 33.8217 263.663 33.6129H263.548V38.8224H261.636ZM263.509 30.2315C263.509 30.9219 263.609 31.527 263.81 32.0469C264.01 32.5668 264.3 32.9737 264.679 33.2678C265.058 33.5575 265.523 33.7024 266.072 33.7024C266.643 33.7024 267.121 33.5511 267.504 33.2486C267.888 32.9418 268.178 32.5263 268.374 32.0021C268.574 31.478 268.674 30.8878 268.674 30.2315C268.674 29.5838 268.576 29.0021 268.38 28.4865C268.188 27.9709 267.898 27.5639 267.511 27.2656C267.127 26.9673 266.648 26.8182 266.072 26.8182C265.518 26.8182 265.05 26.9609 264.666 27.2464C264.287 27.532 263.999 27.9304 263.803 28.4418C263.607 28.9531 263.509 29.5497 263.509 30.2315ZM277.509 35.1406V25.3224H281.581C282.689 25.3224 283.567 25.5589 284.215 26.032C284.862 26.5007 285.186 27.1378 285.186 27.9432C285.186 28.5185 285.003 28.9744 284.637 29.3111C284.27 29.6477 283.784 29.8736 283.179 29.9886C283.618 30.0398 284.021 30.1719 284.387 30.3849C284.754 30.5937 285.048 30.875 285.269 31.2287C285.495 31.5824 285.608 32.0043 285.608 32.4943C285.608 33.0142 285.474 33.4744 285.205 33.875C284.937 34.2713 284.547 34.5824 284.036 34.8082C283.529 35.0298 282.917 35.1406 282.201 35.1406H277.509ZM279.306 33.5426H282.201C282.674 33.5426 283.045 33.4297 283.313 33.2038C283.582 32.978 283.716 32.6712 283.716 32.2834C283.716 31.8274 283.582 31.4695 283.313 31.2095C283.045 30.9453 282.674 30.8132 282.201 30.8132H279.306V33.5426ZM279.306 29.4134H281.6C281.958 29.4134 282.265 29.3622 282.521 29.2599C282.781 29.1577 282.979 29.0128 283.115 28.8253C283.256 28.6335 283.326 28.4077 283.326 28.1477C283.326 27.7685 283.171 27.4723 282.86 27.2592C282.548 27.0462 282.122 26.9396 281.581 26.9396H279.306V29.4134ZM291.976 23.75V22.0497H302.108V23.75H298.023V35.1406H296.054V23.75H291.976ZM305.714 35.358C305.092 35.358 304.53 35.2429 304.027 35.0128C303.524 34.7784 303.126 34.4396 302.831 33.9964C302.542 33.5533 302.397 33.0099 302.397 32.3665C302.397 31.8125 302.503 31.3565 302.716 30.9986C302.93 30.6406 303.217 30.3572 303.579 30.1484C303.942 29.9396 304.346 29.782 304.794 29.6754C305.241 29.5689 305.697 29.4879 306.162 29.4325C306.75 29.3643 307.227 29.3089 307.594 29.2663C307.96 29.2195 308.226 29.1449 308.393 29.0426C308.559 28.9403 308.642 28.7741 308.642 28.544V28.4993C308.642 27.9411 308.484 27.5085 308.169 27.2017C307.858 26.8949 307.393 26.7415 306.775 26.7415C306.132 26.7415 305.625 26.8842 305.254 27.1697C304.888 27.451 304.634 27.7642 304.493 28.1094L302.697 27.7003C302.91 27.1037 303.221 26.6222 303.631 26.2557C304.044 25.8849 304.519 25.6165 305.056 25.4503C305.593 25.2798 306.157 25.1946 306.75 25.1946C307.142 25.1946 307.557 25.2415 307.996 25.3352C308.439 25.4247 308.853 25.5909 309.236 25.8338C309.624 26.0767 309.942 26.424 310.189 26.8757C310.436 27.3232 310.559 27.9048 310.559 28.6207V35.1406H308.693V33.7983H308.616C308.493 34.0455 308.307 34.2884 308.06 34.527C307.813 34.7656 307.496 34.9638 307.108 35.1214C306.72 35.2791 306.256 35.358 305.714 35.358ZM306.13 33.8239C306.658 33.8239 307.11 33.7195 307.485 33.5107C307.864 33.3018 308.152 33.0291 308.348 32.6925C308.548 32.3516 308.648 31.9872 308.648 31.5994V30.3338C308.58 30.402 308.448 30.4659 308.252 30.5256C308.06 30.581 307.841 30.63 307.594 30.6726C307.346 30.7109 307.106 30.7472 306.871 30.7812C306.637 30.8111 306.441 30.8366 306.283 30.858C305.912 30.9048 305.574 30.9837 305.267 31.0945C304.964 31.2053 304.721 31.3651 304.538 31.5739C304.359 31.7784 304.27 32.0511 304.27 32.392C304.27 32.8651 304.444 33.223 304.794 33.4659C305.143 33.7045 305.589 33.8239 306.13 33.8239ZM311.887 26.9716V25.3224H320.172V26.9716H316.969V35.1406H315.103V26.9716H311.887ZM324.593 35.358C323.971 35.358 323.409 35.2429 322.906 35.0128C322.403 34.7784 322.004 34.4396 321.71 33.9964C321.421 33.5533 321.276 33.0099 321.276 32.3665C321.276 31.8125 321.382 31.3565 321.595 30.9986C321.808 30.6406 322.096 30.3572 322.458 30.1484C322.82 29.9396 323.225 29.782 323.673 29.6754C324.12 29.5689 324.576 29.4879 325.041 29.4325C325.629 29.3643 326.106 29.3089 326.472 29.2663C326.839 29.2195 327.105 29.1449 327.271 29.0426C327.438 28.9403 327.521 28.7741 327.521 28.544V28.4993C327.521 27.9411 327.363 27.5085 327.048 27.2017C326.737 26.8949 326.272 26.7415 325.654 26.7415C325.011 26.7415 324.504 26.8842 324.133 27.1697C323.767 27.451 323.513 27.7642 323.372 28.1094L321.576 27.7003C321.789 27.1037 322.1 26.6222 322.509 26.2557C322.923 25.8849 323.398 25.6165 323.935 25.4503C324.472 25.2798 325.036 25.1946 325.629 25.1946C326.021 25.1946 326.436 25.2415 326.875 25.3352C327.318 25.4247 327.732 25.5909 328.115 25.8338C328.503 26.0767 328.82 26.424 329.068 26.8757C329.315 27.3232 329.438 27.9048 329.438 28.6207V35.1406H327.572V33.7983H327.495C327.372 34.0455 327.186 34.2884 326.939 34.527C326.692 34.7656 326.374 34.9638 325.987 35.1214C325.599 35.2791 325.134 35.358 324.593 35.358ZM325.009 33.8239C325.537 33.8239 325.989 33.7195 326.364 33.5107C326.743 33.3018 327.031 33.0291 327.227 32.6925C327.427 32.3516 327.527 31.9872 327.527 31.5994V30.3338C327.459 30.402 327.327 30.4659 327.131 30.5256C326.939 30.581 326.72 30.63 326.472 30.6726C326.225 30.7109 325.985 30.7472 325.75 30.7812C325.516 30.8111 325.32 30.8366 325.162 30.858C324.791 30.9048 324.453 30.9837 324.146 31.0945C323.843 31.2053 323.6 31.3651 323.417 31.5739C323.238 31.7784 323.149 32.0511 323.149 32.392C323.149 32.8651 323.323 33.223 323.673 33.4659C324.022 33.7045 324.468 33.8239 325.009 33.8239ZM331.984 38.8224V25.3224H333.85V26.9141H334.01C334.121 26.7095 334.281 26.473 334.49 26.2045C334.699 25.9361 334.988 25.7017 335.359 25.5014C335.73 25.2969 336.22 25.1946 336.829 25.1946C337.622 25.1946 338.329 25.3949 338.951 25.7955C339.574 26.196 340.061 26.7734 340.415 27.5277C340.773 28.282 340.952 29.1896 340.952 30.2507C340.952 31.3118 340.775 32.2216 340.422 32.9801C340.068 33.7344 339.582 34.3161 338.964 34.7251C338.346 35.13 337.641 35.3324 336.848 35.3324C336.252 35.3324 335.764 35.2322 335.385 35.032C335.01 34.8317 334.716 34.5973 334.502 34.3288C334.289 34.0604 334.125 33.8217 334.01 33.6129H333.895V38.8224H331.984ZM333.857 30.2315C333.857 30.9219 333.957 31.527 334.157 32.0469C334.358 32.5668 334.647 32.9737 335.027 33.2678C335.406 33.5575 335.87 33.7024 336.42 33.7024C336.991 33.7024 337.468 33.5511 337.852 33.2486C338.235 32.9418 338.525 32.5263 338.721 32.0021C338.922 31.478 339.022 30.8878 339.022 30.2315C339.022 29.5838 338.924 29.0021 338.728 28.4865C338.536 27.9709 338.246 27.5639 337.858 27.2656C337.475 26.9673 336.995 26.8182 336.42 26.8182C335.866 26.8182 335.397 26.9609 335.014 27.2464C334.635 27.532 334.347 27.9304 334.151 28.4418C333.955 28.9531 333.857 29.5497 333.857 30.2315ZM347.229 35.3388C346.279 35.3388 345.461 35.1236 344.775 34.6932C344.093 34.2585 343.569 33.6598 343.202 32.897C342.836 32.1342 342.652 31.2607 342.652 30.2763C342.652 29.2791 342.84 28.3991 343.215 27.6364C343.59 26.8693 344.118 26.2706 344.8 25.8402C345.482 25.4098 346.285 25.1946 347.21 25.1946C347.956 25.1946 348.62 25.3331 349.204 25.6101C349.788 25.8828 350.259 26.2663 350.617 26.7607C350.979 27.255 351.194 27.8324 351.262 28.4929H349.402C349.3 28.0327 349.066 27.6364 348.699 27.304C348.337 26.9716 347.851 26.8054 347.242 26.8054C346.709 26.8054 346.243 26.946 345.842 27.2273C345.446 27.5043 345.137 27.9006 344.915 28.4162C344.694 28.9276 344.583 29.5327 344.583 30.2315C344.583 30.9474 344.691 31.5653 344.909 32.0852C345.126 32.6051 345.433 33.0078 345.829 33.2933C346.23 33.5788 346.701 33.7216 347.242 33.7216C347.604 33.7216 347.932 33.6555 348.226 33.5234C348.525 33.3871 348.774 33.1932 348.974 32.9418C349.179 32.6903 349.321 32.3878 349.402 32.0341H351.262C351.194 32.669 350.988 33.2358 350.642 33.7344C350.297 34.233 349.835 34.625 349.255 34.9105C348.68 35.196 348.005 35.3388 347.229 35.3388ZM352.563 26.9716V25.3224H360.847V26.9716H357.645V35.1406H355.778V26.9716H352.563ZM365.269 35.358C364.647 35.358 364.084 35.2429 363.581 35.0128C363.079 34.7784 362.68 34.4396 362.386 33.9964C362.096 33.5533 361.952 33.0099 361.952 32.3665C361.952 31.8125 362.058 31.3565 362.271 30.9986C362.484 30.6406 362.772 30.3572 363.134 30.1484C363.496 29.9396 363.901 29.782 364.349 29.6754C364.796 29.5689 365.252 29.4879 365.716 29.4325C366.305 29.3643 366.782 29.3089 367.148 29.2663C367.515 29.2195 367.781 29.1449 367.947 29.0426C368.113 28.9403 368.197 28.7741 368.197 28.544V28.4993C368.197 27.9411 368.039 27.5085 367.724 27.2017C367.412 26.8949 366.948 26.7415 366.33 26.7415C365.687 26.7415 365.18 26.8842 364.809 27.1697C364.442 27.451 364.189 27.7642 364.048 28.1094L362.252 27.7003C362.465 27.1037 362.776 26.6222 363.185 26.2557C363.599 25.8849 364.074 25.6165 364.611 25.4503C365.148 25.2798 365.712 25.1946 366.305 25.1946C366.697 25.1946 367.112 25.2415 367.551 25.3352C367.994 25.4247 368.407 25.5909 368.791 25.8338C369.179 26.0767 369.496 26.424 369.743 26.8757C369.991 27.3232 370.114 27.9048 370.114 28.6207V35.1406H368.248V33.7983H368.171C368.047 34.0455 367.862 34.2884 367.615 34.527C367.368 34.7656 367.05 34.9638 366.662 35.1214C366.275 35.2791 365.81 35.358 365.269 35.358ZM365.684 33.8239C366.213 33.8239 366.665 33.7195 367.04 33.5107C367.419 33.3018 367.706 33.0291 367.903 32.6925C368.103 32.3516 368.203 31.9872 368.203 31.5994V30.3338C368.135 30.402 368.003 30.4659 367.807 30.5256C367.615 30.581 367.395 30.63 367.148 30.6726C366.901 30.7109 366.66 30.7472 366.426 30.7812C366.192 30.8111 365.996 30.8366 365.838 30.858C365.467 30.9048 365.128 30.9837 364.822 31.0945C364.519 31.2053 364.276 31.3651 364.093 31.5739C363.914 31.7784 363.824 32.0511 363.824 32.392C363.824 32.8651 363.999 33.223 364.349 33.4659C364.698 33.7045 365.143 33.8239 365.684 33.8239ZM379.314 29.407V31.0625H373.996V29.407H379.314ZM374.533 25.3224V35.1406H372.66V25.3224H374.533ZM380.65 25.3224V35.1406H378.783V25.3224H380.65ZM387.438 35.3388C386.471 35.3388 385.638 35.1321 384.939 34.7188C384.244 34.3011 383.707 33.7152 383.328 32.9609C382.953 32.2024 382.766 31.3139 382.766 30.2955C382.766 29.2898 382.953 28.4034 383.328 27.6364C383.707 26.8693 384.236 26.2706 384.913 25.8402C385.595 25.4098 386.392 25.1946 387.304 25.1946C387.858 25.1946 388.395 25.2862 388.915 25.4695C389.435 25.6527 389.901 25.9403 390.315 26.3324C390.728 26.7244 391.054 27.2337 391.293 27.8601C391.531 28.4822 391.651 29.2386 391.651 30.1293V30.8068H383.846V29.375H389.778C389.778 28.8722 389.675 28.4268 389.471 28.0391C389.266 27.647 388.979 27.3381 388.608 27.1122C388.241 26.8864 387.811 26.7734 387.317 26.7734C386.78 26.7734 386.311 26.9055 385.911 27.1697C385.514 27.4297 385.207 27.7706 384.99 28.1925C384.777 28.6101 384.67 29.0639 384.67 29.554V30.6726C384.67 31.3288 384.786 31.8871 385.016 32.3473C385.25 32.8075 385.576 33.1591 385.994 33.402C386.411 33.6406 386.899 33.7599 387.457 33.7599C387.82 33.7599 388.15 33.7088 388.448 33.6065C388.746 33.5 389.004 33.3423 389.222 33.1335C389.439 32.9247 389.605 32.6669 389.72 32.3601L391.529 32.6861C391.384 33.2187 391.124 33.6854 390.749 34.0859C390.379 34.4822 389.912 34.7912 389.349 35.0128C388.791 35.2301 388.154 35.3388 387.438 35.3388ZM20.7905 51.407V53.0625H15.4723V51.407H20.7905ZM16.0092 47.3224V57.1406H14.1364V47.3224H16.0092ZM22.1264 47.3224V57.1406H20.2599V47.3224H22.1264ZM27.5405 57.358C26.9183 57.358 26.3558 57.2429 25.853 57.0128C25.3501 56.7784 24.9517 56.4396 24.6577 55.9964C24.3679 55.5533 24.223 55.0099 24.223 54.3665C24.223 53.8125 24.3295 53.3565 24.5426 52.9986C24.7557 52.6406 25.0433 52.3572 25.4055 52.1484C25.7678 51.9396 26.1726 51.782 26.62 51.6754C27.0675 51.5689 27.5234 51.4879 27.9879 51.4325C28.576 51.3643 29.0533 51.3089 29.4197 51.2663C29.7862 51.2195 30.0526 51.1449 30.2188 51.0426C30.3849 50.9403 30.468 50.7741 30.468 50.544V50.4993C30.468 49.9411 30.3104 49.5085 29.995 49.2017C29.6839 48.8949 29.2195 48.7415 28.6016 48.7415C27.9581 48.7415 27.451 48.8842 27.0803 49.1697C26.7138 49.451 26.4602 49.7642 26.3196 50.1094L24.5234 49.7003C24.7365 49.1037 25.0476 48.6222 25.4567 48.2557C25.87 47.8849 26.3452 47.6165 26.8821 47.4503C27.419 47.2798 27.9837 47.1946 28.576 47.1946C28.968 47.1946 29.3835 47.2415 29.8224 47.3352C30.2656 47.4247 30.679 47.5909 31.0625 47.8338C31.4503 48.0767 31.7678 48.424 32.0149 48.8757C32.2621 49.3232 32.3857 49.9048 32.3857 50.6207V57.1406H30.5192V55.7983H30.4425C30.3189 56.0455 30.1335 56.2884 29.8864 56.527C29.6392 56.7656 29.3217 56.9638 28.9339 57.1214C28.5462 57.2791 28.0817 57.358 27.5405 57.358ZM27.956 55.8239C28.4844 55.8239 28.9361 55.7195 29.3111 55.5107C29.6903 55.3018 29.978 55.0291 30.174 54.6925C30.3743 54.3516 30.4744 53.9872 30.4744 53.5994V52.3338C30.4063 52.402 30.2741 52.4659 30.0781 52.5256C29.8864 52.581 29.6669 52.63 29.4197 52.6726C29.1726 52.7109 28.9318 52.7472 28.6974 52.7812C28.4631 52.8111 28.267 52.8366 28.1094 52.858C27.7386 52.9048 27.3999 52.9837 27.093 53.0945C26.7905 53.2053 26.5476 53.3651 26.3643 53.5739C26.1854 53.7784 26.0959 54.0511 26.0959 54.392C26.0959 54.8651 26.2706 55.223 26.62 55.4659C26.9695 55.7045 27.4148 55.8239 27.956 55.8239ZM39.6694 57.1406V55.7088L44.0991 51.1193C44.5721 50.6207 44.962 50.1839 45.2688 49.8089C45.5799 49.4297 45.8121 49.0696 45.9656 48.7287C46.119 48.3878 46.1957 48.0256 46.1957 47.642C46.1957 47.2074 46.0934 46.8324 45.8888 46.517C45.6843 46.1974 45.4052 45.9524 45.0515 45.782C44.6978 45.6072 44.2994 45.5199 43.8562 45.5199C43.3874 45.5199 42.9783 45.6158 42.6289 45.8075C42.2795 45.9993 42.011 46.2699 41.8235 46.6193C41.636 46.9687 41.5423 47.3778 41.5423 47.8466H39.6566C39.6566 47.0497 39.8398 46.353 40.2063 45.7564C40.5728 45.1598 41.0756 44.6974 41.7148 44.3693C42.354 44.0369 43.0806 43.8707 43.8945 43.8707C44.717 43.8707 45.4414 44.0348 46.0678 44.3629C46.6985 44.6868 47.1907 45.13 47.5444 45.6925C47.8981 46.2507 48.0749 46.8814 48.0749 47.5845C48.0749 48.0703 47.9833 48.5455 47.8001 49.0099C47.6211 49.4744 47.3079 49.9922 46.8604 50.5632C46.413 51.13 45.7908 51.8182 44.994 52.6278L42.3924 55.3509V55.4467H48.2859V57.1406H39.6694ZM55.266 57.358C54.256 57.3537 53.3931 57.0874 52.6772 56.5589C51.9613 56.0305 51.4137 55.2614 51.0344 54.2514C50.6552 53.2415 50.4656 52.0249 50.4656 50.6016C50.4656 49.1825 50.6552 47.9702 51.0344 46.9645C51.418 45.9588 51.9677 45.1918 52.6836 44.6634C53.4038 44.1349 54.2646 43.8707 55.266 43.8707C56.2674 43.8707 57.1261 44.1371 57.842 44.6697C58.5579 45.1982 59.1055 45.9652 59.4847 46.9709C59.8683 47.9723 60.06 49.1825 60.06 50.6016C60.06 52.0291 59.8704 53.2479 59.4911 54.2578C59.1119 55.2635 58.5643 56.0327 57.8484 56.5653C57.1325 57.0938 56.2717 57.358 55.266 57.358ZM55.266 55.6513C56.1523 55.6513 56.8448 55.2188 57.3434 54.3537C57.8462 53.4886 58.0977 52.2379 58.0977 50.6016C58.0977 49.5149 57.9826 48.5966 57.7525 47.8466C57.5266 47.0923 57.2006 46.5213 56.7745 46.1335C56.3526 45.7415 55.8498 45.5455 55.266 45.5455C54.3839 45.5455 53.6914 45.9801 53.1886 46.8494C52.6857 47.7187 52.4322 48.9695 52.4279 50.6016C52.4279 51.6925 52.5408 52.6151 52.7667 53.3693C52.9968 54.1193 53.3228 54.6882 53.7447 55.076C54.1665 55.4595 54.6737 55.6513 55.266 55.6513ZM62.3276 57.1406V55.7088L66.7573 51.1193C67.2303 50.6207 67.6202 50.1839 67.927 49.8089C68.2381 49.4297 68.4703 49.0696 68.6238 48.7287C68.7772 48.3878 68.8539 48.0256 68.8539 47.642C68.8539 47.2074 68.7516 46.8324 68.5471 46.517C68.3425 46.1974 68.0634 45.9524 67.7097 45.782C67.356 45.6072 66.9576 45.5199 66.5144 45.5199C66.0456 45.5199 65.6365 45.6158 65.2871 45.8075C64.9377 45.9993 64.6692 46.2699 64.4817 46.6193C64.2942 46.9687 64.2005 47.3778 64.2005 47.8466H62.3148C62.3148 47.0497 62.498 46.353 62.8645 45.7564C63.231 45.1598 63.7338 44.6974 64.373 44.3693C65.0123 44.0369 65.7388 43.8707 66.5527 43.8707C67.3752 43.8707 68.0996 44.0348 68.726 44.3629C69.3567 44.6868 69.8489 45.13 70.2026 45.6925C70.5563 46.2507 70.7331 46.8814 70.7331 47.5845C70.7331 48.0703 70.6415 48.5455 70.4583 49.0099C70.2793 49.4744 69.9661 49.9922 69.5186 50.5632C69.0712 51.13 68.449 51.8182 67.6522 52.6278L65.0506 55.3509V55.4467H70.9441V57.1406H62.3276ZM77.9242 57.358C76.9142 57.3537 76.0513 57.0874 75.3354 56.5589C74.6195 56.0305 74.0719 55.2614 73.6926 54.2514C73.3134 53.2415 73.1238 52.0249 73.1238 50.6016C73.1238 49.1825 73.3134 47.9702 73.6926 46.9645C74.0762 45.9588 74.6259 45.1918 75.3418 44.6634C76.062 44.1349 76.9228 43.8707 77.9242 43.8707C78.9256 43.8707 79.7843 44.1371 80.5002 44.6697C81.2161 45.1982 81.7637 45.9652 82.1429 46.9709C82.5265 47.9723 82.7182 49.1825 82.7182 50.6016C82.7182 52.0291 82.5286 53.2479 82.1493 54.2578C81.7701 55.2635 81.2225 56.0327 80.5066 56.5653C79.7907 57.0938 78.9299 57.358 77.9242 57.358ZM77.9242 55.6513C78.8105 55.6513 79.503 55.2188 80.0016 54.3537C80.5044 53.4886 80.7559 52.2379 80.7559 50.6016C80.7559 49.5149 80.6408 48.5966 80.4107 47.8466C80.1848 47.0923 79.8588 46.5213 79.4327 46.1335C79.0108 45.7415 78.508 45.5455 77.9242 45.5455C77.0421 45.5455 76.3496 45.9801 75.8468 46.8494C75.3439 47.7187 75.0904 48.9695 75.0861 50.6016C75.0861 51.6925 75.199 52.6151 75.4249 53.3693C75.655 54.1193 75.981 54.6882 76.4029 55.076C76.8248 55.4595 77.3319 55.6513 77.9242 55.6513ZM90.7962 49.7642V51.4261H84.9922V49.7642H90.7962ZM92.7905 57.1406V55.7088L97.2202 51.1193C97.6932 50.6207 98.0831 50.1839 98.3899 49.8089C98.701 49.4297 98.9332 49.0696 99.0866 48.7287C99.2401 48.3878 99.3168 48.0256 99.3168 47.642C99.3168 47.2074 99.2145 46.8324 99.0099 46.517C98.8054 46.1974 98.5263 45.9524 98.1726 45.782C97.8189 45.6072 97.4205 45.5199 96.9773 45.5199C96.5085 45.5199 96.0994 45.6158 95.75 45.8075C95.4006 45.9993 95.1321 46.2699 94.9446 46.6193C94.7571 46.9687 94.6634 47.3778 94.6634 47.8466H92.7777C92.7777 47.0497 92.9609 46.353 93.3274 45.7564C93.6939 45.1598 94.1967 44.6974 94.8359 44.3693C95.4751 44.0369 96.2017 43.8707 97.0156 43.8707C97.8381 43.8707 98.5625 44.0348 99.1889 44.3629C99.8196 44.6868 100.312 45.13 100.665 45.6925C101.019 46.2507 101.196 46.8814 101.196 47.5845C101.196 48.0703 101.104 48.5455 100.921 49.0099C100.742 49.4744 100.429 49.9922 99.9815 50.5632C99.5341 51.13 98.9119 51.8182 98.1151 52.6278L95.5135 55.3509V55.4467H101.407V57.1406H92.7905ZM108.387 57.358C107.377 57.3537 106.514 57.0874 105.798 56.5589C105.082 56.0305 104.535 55.2614 104.156 54.2514C103.776 53.2415 103.587 52.0249 103.587 50.6016C103.587 49.1825 103.776 47.9702 104.156 46.9645C104.539 45.9588 105.089 45.1918 105.805 44.6634C106.525 44.1349 107.386 43.8707 108.387 43.8707C109.388 43.8707 110.247 44.1371 110.963 44.6697C111.679 45.1982 112.227 45.9652 112.606 46.9709C112.989 47.9723 113.181 49.1825 113.181 50.6016C113.181 52.0291 112.991 53.2479 112.612 54.2578C112.233 55.2635 111.685 56.0327 110.969 56.5653C110.254 57.0938 109.393 57.358 108.387 57.358ZM108.387 55.6513C109.273 55.6513 109.966 55.2188 110.464 54.3537C110.967 53.4886 111.219 52.2379 111.219 50.6016C111.219 49.5149 111.104 48.5966 110.874 47.8466C110.648 47.0923 110.322 46.5213 109.896 46.1335C109.474 45.7415 108.971 45.5455 108.387 45.5455C107.505 45.5455 106.813 45.9801 106.31 46.8494C105.807 47.7187 105.553 48.9695 105.549 50.6016C105.549 51.6925 105.662 52.6151 105.888 53.3693C106.118 54.1193 106.444 54.6882 106.866 55.076C107.288 55.4595 107.795 55.6513 108.387 55.6513ZM115.449 57.1406V55.7088L119.878 51.1193C120.351 50.6207 120.741 50.1839 121.048 49.8089C121.359 49.4297 121.591 49.0696 121.745 48.7287C121.898 48.3878 121.975 48.0256 121.975 47.642C121.975 47.2074 121.873 46.8324 121.668 46.517C121.464 46.1974 121.184 45.9524 120.831 45.782C120.477 45.6072 120.079 45.5199 119.635 45.5199C119.167 45.5199 118.758 45.6158 118.408 45.8075C118.059 45.9993 117.79 46.2699 117.603 46.6193C117.415 46.9687 117.322 47.3778 117.322 47.8466H115.436C115.436 47.0497 115.619 46.353 115.986 45.7564C116.352 45.1598 116.855 44.6974 117.494 44.3693C118.133 44.0369 118.86 43.8707 119.674 43.8707C120.496 43.8707 121.221 44.0348 121.847 44.3629C122.478 44.6868 122.97 45.13 123.324 45.6925C123.677 46.2507 123.854 46.8814 123.854 47.5845C123.854 48.0703 123.763 48.5455 123.579 49.0099C123.4 49.4744 123.087 49.9922 122.64 50.5632C122.192 51.13 121.57 51.8182 120.773 52.6278L118.172 55.3509V55.4467H124.065V57.1406H115.449ZM131.454 44.0497V57.1406H129.473V46.0312H129.396L126.264 48.0767V46.1847L129.53 44.0497H131.454ZM146.062 47.3224V48.9716H141.67V57.1406H139.785V47.3224H146.062ZM151.76 57.3388C150.84 57.3388 150.037 57.1278 149.35 56.706C148.664 56.2841 148.132 55.6939 147.752 54.9354C147.373 54.1768 147.184 53.2905 147.184 52.2763C147.184 51.2578 147.373 50.3672 147.752 49.6044C148.132 48.8416 148.664 48.2493 149.35 47.8274C150.037 47.4055 150.84 47.1946 151.76 47.1946C152.681 47.1946 153.484 47.4055 154.17 47.8274C154.856 48.2493 155.389 48.8416 155.768 49.6044C156.147 50.3672 156.337 51.2578 156.337 52.2763C156.337 53.2905 156.147 54.1768 155.768 54.9354C155.389 55.6939 154.856 56.2841 154.17 56.706C153.484 57.1278 152.681 57.3388 151.76 57.3388ZM151.767 55.7344C152.363 55.7344 152.858 55.5767 153.25 55.2614C153.642 54.946 153.931 54.5263 154.119 54.0021C154.311 53.478 154.407 52.9006 154.407 52.2699C154.407 51.6435 154.311 51.0682 154.119 50.544C153.931 50.0156 153.642 49.5916 153.25 49.272C152.858 48.9524 152.363 48.7926 151.767 48.7926C151.166 48.7926 150.667 48.9524 150.271 49.272C149.879 49.5916 149.587 50.0156 149.395 50.544C149.208 51.0682 149.114 51.6435 149.114 52.2699C149.114 52.9006 149.208 53.478 149.395 54.0021C149.587 54.5263 149.879 54.946 150.271 55.2614C150.667 55.5767 151.166 55.7344 151.767 55.7344ZM157.512 59.9723V55.4851H158.311C158.515 55.2976 158.688 55.0739 158.828 54.8139C158.973 54.554 159.095 54.245 159.193 53.8871C159.295 53.5291 159.38 53.1115 159.448 52.6342C159.517 52.1527 159.576 51.603 159.627 50.9851L159.934 47.3224H166.607V55.4851H168.116V59.9723H166.249V57.1406H159.404V59.9723H157.512ZM160.356 55.4851H164.741V48.9588H161.647L161.443 50.9851C161.345 52.0163 161.221 52.9112 161.072 53.6697C160.923 54.424 160.684 55.0291 160.356 55.4851ZM171.243 57.2621C170.894 57.2621 170.593 57.1385 170.342 56.8913C170.091 56.6399 169.965 56.3374 169.965 55.9837C169.965 55.6342 170.091 55.3359 170.342 55.0888C170.593 54.8374 170.894 54.7116 171.243 54.7116C171.593 54.7116 171.893 54.8374 172.145 55.0888C172.396 55.3359 172.522 55.6342 172.522 55.9837C172.522 56.218 172.462 56.4332 172.343 56.6293C172.228 56.821 172.074 56.9744 171.882 57.0895C171.691 57.2045 171.478 57.2621 171.243 57.2621Z" fill="#16293F"/>
<ellipse cx="188.532" cy="189.341" rx="74.9852" ry="73.509" fill="#1FDAE3"/>
<path d="M119.018 258.842C105.132 245.23 95.6762 227.887 91.8453 209.007C88.0143 190.127 89.9805 170.557 97.4952 152.772C105.01 134.987 117.736 119.786 134.063 109.091C150.391 98.3959 169.587 92.6875 189.223 92.6875V190.019L119.018 258.842Z" fill="#3C4B94"/>
<path d="M301.01 189.338C301.01 213.312 293.039 236.634 278.305 255.769C263.571 274.904 242.877 288.81 219.357 295.38C195.837 301.95 170.774 300.826 147.964 292.179C125.154 283.532 105.841 267.833 92.9496 247.459L188.532 189.338H301.01Z" fill="#B17CE7"/>
<ellipse cx="189.1" cy="189.894" rx="38.0612" ry="37.3119" fill="white"/>
<path d="M221.643 247.792C221.124 247.784 220.612 247.69 220.109 247.508C219.609 247.326 219.154 247.023 218.745 246.599C218.336 246.174 218.008 245.604 217.762 244.888C217.52 244.173 217.398 243.279 217.398 242.207C217.398 241.192 217.499 240.29 217.7 239.502C217.904 238.714 218.198 238.049 218.58 237.508C218.963 236.962 219.425 236.548 219.967 236.263C220.508 235.979 221.116 235.837 221.79 235.837C222.484 235.837 223.099 235.974 223.637 236.246C224.175 236.519 224.611 236.896 224.944 237.377C225.281 237.858 225.495 238.406 225.586 239.019H223.853C223.736 238.534 223.503 238.138 223.154 237.832C222.806 237.525 222.351 237.371 221.79 237.371C220.938 237.371 220.273 237.743 219.796 238.485C219.323 239.228 219.084 240.26 219.08 241.582H219.165C219.366 241.252 219.612 240.972 219.904 240.741C220.2 240.506 220.529 240.326 220.893 240.201C221.26 240.072 221.647 240.008 222.052 240.008C222.726 240.008 223.336 240.173 223.881 240.502C224.431 240.828 224.868 241.279 225.194 241.854C225.52 242.43 225.683 243.089 225.683 243.832C225.683 244.574 225.514 245.246 225.177 245.849C224.844 246.451 224.374 246.928 223.768 247.281C223.162 247.629 222.453 247.799 221.643 247.792ZM221.637 246.315C222.084 246.315 222.484 246.205 222.836 245.985C223.188 245.765 223.467 245.47 223.671 245.099C223.876 244.728 223.978 244.313 223.978 243.854C223.978 243.407 223.878 243 223.677 242.633C223.48 242.265 223.207 241.974 222.859 241.758C222.514 241.542 222.12 241.434 221.677 241.434C221.34 241.434 221.027 241.498 220.739 241.627C220.455 241.756 220.205 241.934 219.989 242.161C219.773 242.388 219.603 242.65 219.478 242.945C219.357 243.237 219.296 243.546 219.296 243.871C219.296 244.307 219.397 244.71 219.597 245.082C219.802 245.453 220.08 245.752 220.433 245.979C220.789 246.203 221.19 246.315 221.637 246.315ZM231.593 247.792C230.881 247.792 230.241 247.656 229.673 247.383C229.108 247.106 228.657 246.728 228.32 246.246C227.983 245.765 227.803 245.216 227.781 244.599H229.485C229.527 245.099 229.748 245.51 230.15 245.832C230.551 246.154 231.032 246.315 231.593 246.315C232.04 246.315 232.436 246.212 232.781 246.008C233.129 245.799 233.402 245.513 233.599 245.15C233.799 244.786 233.9 244.371 233.9 243.906C233.9 243.432 233.798 243.01 233.593 242.638C233.388 242.267 233.106 241.976 232.746 241.763C232.39 241.551 231.981 241.443 231.519 241.44C231.167 241.44 230.813 241.5 230.457 241.621C230.101 241.743 229.813 241.902 229.593 242.099L227.985 241.86L228.638 235.996H235.036V237.502H230.099L229.729 240.758H229.798C230.025 240.538 230.326 240.354 230.701 240.207C231.08 240.059 231.485 239.985 231.917 239.985C232.625 239.985 233.256 240.154 233.809 240.491C234.366 240.828 234.803 241.288 235.121 241.871C235.443 242.451 235.603 243.118 235.599 243.871C235.603 244.625 235.432 245.298 235.087 245.888C234.746 246.479 234.273 246.945 233.667 247.286C233.065 247.623 232.373 247.792 231.593 247.792ZM243.748 245.451V244.837C243.748 244.398 243.839 243.996 244.021 243.633C244.206 243.265 244.475 242.972 244.827 242.752C245.183 242.529 245.613 242.417 246.117 242.417C246.632 242.417 247.064 242.527 247.413 242.746C247.761 242.966 248.024 243.26 248.202 243.627C248.384 243.995 248.475 244.398 248.475 244.837V245.451C248.475 245.89 248.384 246.294 248.202 246.661C248.021 247.025 247.754 247.318 247.401 247.542C247.053 247.762 246.625 247.871 246.117 247.871C245.606 247.871 245.174 247.762 244.822 247.542C244.469 247.318 244.202 247.025 244.021 246.661C243.839 246.294 243.748 245.89 243.748 245.451ZM245.072 244.837V245.451C245.072 245.777 245.149 246.072 245.305 246.337C245.46 246.603 245.731 246.735 246.117 246.735C246.5 246.735 246.767 246.603 246.918 246.337C247.07 246.072 247.146 245.777 247.146 245.451V244.837C247.146 244.512 247.072 244.216 246.924 243.951C246.78 243.686 246.511 243.553 246.117 243.553C245.738 243.553 245.469 243.686 245.31 243.951C245.151 244.216 245.072 244.512 245.072 244.837ZM237.896 238.792V238.178C237.896 237.739 237.987 237.335 238.168 236.968C238.354 236.601 238.623 236.307 238.975 236.087C239.331 235.868 239.761 235.758 240.265 235.758C240.78 235.758 241.212 235.868 241.56 236.087C241.909 236.307 242.172 236.601 242.35 236.968C242.528 237.335 242.617 237.739 242.617 238.178V238.792C242.617 239.231 242.526 239.635 242.344 240.002C242.166 240.366 241.901 240.659 241.549 240.883C241.201 241.103 240.772 241.212 240.265 241.212C239.75 241.212 239.316 241.103 238.964 240.883C238.615 240.659 238.35 240.366 238.168 240.002C237.987 239.635 237.896 239.231 237.896 238.792ZM239.225 238.178V238.792C239.225 239.118 239.301 239.413 239.452 239.678C239.608 239.943 239.879 240.076 240.265 240.076C240.644 240.076 240.909 239.943 241.06 239.678C241.216 239.413 241.293 239.118 241.293 238.792V238.178C241.293 237.853 241.219 237.557 241.072 237.292C240.924 237.027 240.655 236.894 240.265 236.894C239.886 236.894 239.617 237.027 239.458 237.292C239.303 237.557 239.225 237.853 239.225 238.178ZM238.435 247.633L246.435 235.996H247.793L239.793 247.633H238.435Z" fill="white"/>
<path d="M103.565 202.578V201.305L107.502 197.226C107.923 196.783 108.269 196.394 108.542 196.061C108.818 195.724 109.025 195.404 109.161 195.101C109.298 194.798 109.366 194.476 109.366 194.135C109.366 193.749 109.275 193.415 109.093 193.135C108.911 192.851 108.663 192.633 108.349 192.482C108.034 192.326 107.68 192.249 107.286 192.249C106.87 192.249 106.506 192.334 106.195 192.504C105.885 192.675 105.646 192.915 105.479 193.226C105.313 193.536 105.229 193.9 105.229 194.317H103.553C103.553 193.608 103.716 192.989 104.042 192.459C104.368 191.929 104.815 191.518 105.383 191.226C105.951 190.93 106.597 190.783 107.32 190.783C108.051 190.783 108.695 190.929 109.252 191.22C109.813 191.508 110.25 191.902 110.565 192.402C110.879 192.898 111.036 193.459 111.036 194.084C111.036 194.516 110.955 194.938 110.792 195.351C110.633 195.764 110.354 196.224 109.957 196.732C109.559 197.235 109.006 197.847 108.298 198.567L105.985 200.987V201.072H111.224V202.578H103.565ZM117.428 202.771C116.531 202.768 115.763 202.531 115.127 202.061C114.491 201.591 114.004 200.908 113.667 200.01C113.33 199.112 113.161 198.031 113.161 196.766C113.161 195.504 113.33 194.427 113.667 193.533C114.008 192.639 114.496 191.957 115.133 191.487C115.773 191.018 116.538 190.783 117.428 190.783C118.318 190.783 119.082 191.019 119.718 191.493C120.354 191.963 120.841 192.644 121.178 193.538C121.519 194.429 121.69 195.504 121.69 196.766C121.69 198.035 121.521 199.118 121.184 200.016C120.847 200.91 120.36 201.593 119.724 202.067C119.087 202.536 118.322 202.771 117.428 202.771ZM117.428 201.254C118.216 201.254 118.832 200.87 119.275 200.101C119.722 199.332 119.945 198.22 119.945 196.766C119.945 195.8 119.843 194.983 119.638 194.317C119.438 193.646 119.148 193.139 118.769 192.794C118.394 192.446 117.947 192.271 117.428 192.271C116.644 192.271 116.029 192.658 115.582 193.43C115.135 194.203 114.909 195.315 114.906 196.766C114.906 197.735 115.006 198.555 115.207 199.226C115.411 199.893 115.701 200.398 116.076 200.743C116.451 201.084 116.902 201.254 117.428 201.254ZM129.779 200.396V199.783C129.779 199.343 129.87 198.942 130.052 198.578C130.237 198.211 130.506 197.917 130.859 197.697C131.215 197.474 131.645 197.362 132.148 197.362C132.664 197.362 133.095 197.472 133.444 197.692C133.792 197.911 134.056 198.205 134.234 198.572C134.415 198.94 134.506 199.343 134.506 199.783V200.396C134.506 200.836 134.415 201.239 134.234 201.607C134.052 201.97 133.785 202.264 133.433 202.487C133.084 202.707 132.656 202.817 132.148 202.817C131.637 202.817 131.205 202.707 130.853 202.487C130.501 202.264 130.234 201.97 130.052 201.607C129.87 201.239 129.779 200.836 129.779 200.396ZM131.103 199.783V200.396C131.103 200.722 131.181 201.018 131.336 201.283C131.491 201.548 131.762 201.68 132.148 201.68C132.531 201.68 132.798 201.548 132.95 201.283C133.101 201.018 133.177 200.722 133.177 200.396V199.783C133.177 199.457 133.103 199.161 132.955 198.896C132.811 198.631 132.542 198.499 132.148 198.499C131.77 198.499 131.501 198.631 131.342 198.896C131.183 199.161 131.103 199.457 131.103 199.783ZM123.927 193.737V193.124C123.927 192.684 124.018 192.281 124.2 191.913C124.385 191.546 124.654 191.252 125.006 191.033C125.362 190.813 125.792 190.703 126.296 190.703C126.811 190.703 127.243 190.813 127.592 191.033C127.94 191.252 128.203 191.546 128.381 191.913C128.559 192.281 128.648 192.684 128.648 193.124V193.737C128.648 194.177 128.558 194.58 128.376 194.947C128.198 195.311 127.933 195.605 127.58 195.828C127.232 196.048 126.804 196.158 126.296 196.158C125.781 196.158 125.347 196.048 124.995 195.828C124.647 195.605 124.381 195.311 124.2 194.947C124.018 194.58 123.927 194.177 123.927 193.737ZM125.256 193.124V193.737C125.256 194.063 125.332 194.358 125.484 194.624C125.639 194.889 125.91 195.021 126.296 195.021C126.675 195.021 126.94 194.889 127.092 194.624C127.247 194.358 127.325 194.063 127.325 193.737V193.124C127.325 192.798 127.251 192.502 127.103 192.237C126.955 191.972 126.686 191.839 126.296 191.839C125.917 191.839 125.648 191.972 125.489 192.237C125.334 192.502 125.256 192.798 125.256 193.124ZM124.467 202.578L132.467 190.942H133.825L125.825 202.578H124.467Z" fill="#B17CE7"/>
<path d="M205.636 135.121V146.758H203.874V136.883H203.806L201.022 138.701V137.019L203.925 135.121H205.636ZM212.624 146.917C211.912 146.917 211.272 146.781 210.704 146.508C210.139 146.231 209.689 145.853 209.352 145.371C209.014 144.89 208.835 144.341 208.812 143.724H210.516C210.558 144.224 210.78 144.635 211.181 144.957C211.583 145.279 212.064 145.44 212.624 145.44C213.071 145.44 213.467 145.337 213.812 145.133C214.16 144.924 214.433 144.638 214.63 144.275C214.831 143.911 214.931 143.496 214.931 143.031C214.931 142.557 214.829 142.135 214.624 141.763C214.42 141.392 214.138 141.101 213.778 140.888C213.422 140.676 213.013 140.568 212.55 140.565C212.198 140.565 211.844 140.625 211.488 140.746C211.132 140.868 210.844 141.027 210.624 141.224L209.016 140.985L209.67 135.121H216.067V136.627H211.13L210.761 139.883H210.829C211.056 139.663 211.357 139.479 211.732 139.332C212.111 139.184 212.516 139.11 212.948 139.11C213.656 139.11 214.287 139.279 214.84 139.616C215.397 139.953 215.835 140.413 216.153 140.996C216.475 141.576 216.634 142.243 216.63 142.996C216.634 143.75 216.463 144.423 216.119 145.013C215.778 145.604 215.304 146.07 214.698 146.411C214.096 146.748 213.405 146.917 212.624 146.917ZM224.779 144.576V143.962C224.779 143.523 224.87 143.121 225.052 142.758C225.237 142.39 225.506 142.097 225.859 141.877C226.215 141.654 226.645 141.542 227.148 141.542C227.664 141.542 228.095 141.652 228.444 141.871C228.792 142.091 229.056 142.385 229.234 142.752C229.415 143.12 229.506 143.523 229.506 143.962V144.576C229.506 145.015 229.415 145.419 229.234 145.786C229.052 146.15 228.785 146.443 228.433 146.667C228.084 146.887 227.656 146.996 227.148 146.996C226.637 146.996 226.205 146.887 225.853 146.667C225.501 146.443 225.234 146.15 225.052 145.786C224.87 145.419 224.779 145.015 224.779 144.576ZM226.103 143.962V144.576C226.103 144.902 226.181 145.197 226.336 145.462C226.491 145.728 226.762 145.86 227.148 145.86C227.531 145.86 227.798 145.728 227.95 145.462C228.101 145.197 228.177 144.902 228.177 144.576V143.962C228.177 143.637 228.103 143.341 227.955 143.076C227.811 142.811 227.542 142.678 227.148 142.678C226.77 142.678 226.501 142.811 226.342 143.076C226.183 143.341 226.103 143.637 226.103 143.962ZM218.927 137.917V137.303C218.927 136.864 219.018 136.46 219.2 136.093C219.385 135.726 219.654 135.432 220.006 135.212C220.362 134.993 220.792 134.883 221.296 134.883C221.811 134.883 222.243 134.993 222.592 135.212C222.94 135.432 223.203 135.726 223.381 136.093C223.559 136.46 223.648 136.864 223.648 137.303V137.917C223.648 138.356 223.558 138.76 223.376 139.127C223.198 139.491 222.933 139.784 222.58 140.008C222.232 140.228 221.804 140.337 221.296 140.337C220.781 140.337 220.347 140.228 219.995 140.008C219.647 139.784 219.381 139.491 219.2 139.127C219.018 138.76 218.927 138.356 218.927 137.917ZM220.256 137.303V137.917C220.256 138.243 220.332 138.538 220.484 138.803C220.639 139.068 220.91 139.201 221.296 139.201C221.675 139.201 221.94 139.068 222.092 138.803C222.247 138.538 222.325 138.243 222.325 137.917V137.303C222.325 136.978 222.251 136.682 222.103 136.417C221.955 136.152 221.686 136.019 221.296 136.019C220.917 136.019 220.648 136.152 220.489 136.417C220.334 136.682 220.256 136.978 220.256 137.303ZM219.467 146.758L227.467 135.121H228.825L220.825 146.758H219.467Z" fill="#3C4B94"/>
<circle cx="378.142" cy="133.786" r="10.7122" fill="#B17CE7"/>
<circle cx="378.142" cy="177.708" r="10.7122" fill="#3C4B94"/>
<circle cx="378.142" cy="221.63" r="10.7122" fill="#1FDAE3"/>
<path opacity="0.8" d="M400.841 139.148V127.512H405.102C405.928 127.512 406.612 127.648 407.153 127.921C407.695 128.19 408.1 128.556 408.369 129.018C408.638 129.476 408.773 129.993 408.773 130.569C408.773 131.054 408.684 131.463 408.506 131.796C408.328 132.126 408.089 132.391 407.79 132.592C407.494 132.789 407.169 132.933 406.812 133.023V133.137C407.199 133.156 407.576 133.281 407.943 133.512C408.314 133.739 408.621 134.063 408.864 134.484C409.106 134.904 409.227 135.415 409.227 136.018C409.227 136.612 409.087 137.147 408.807 137.62C408.53 138.09 408.102 138.463 407.523 138.739C406.943 139.012 406.203 139.148 405.301 139.148H400.841ZM402.597 137.643H405.131C405.972 137.643 406.574 137.48 406.938 137.154C407.301 136.828 407.483 136.421 407.483 135.933C407.483 135.565 407.39 135.228 407.205 134.921C407.019 134.614 406.754 134.37 406.409 134.188C406.068 134.006 405.663 133.915 405.193 133.915H402.597V137.643ZM402.597 132.546H404.949C405.343 132.546 405.697 132.47 406.011 132.319C406.33 132.167 406.581 131.955 406.767 131.683C406.956 131.406 407.051 131.08 407.051 130.705C407.051 130.224 406.883 129.821 406.545 129.495C406.208 129.169 405.691 129.006 404.994 129.006H402.597V132.546ZM417.072 136.768L420.919 130.421H422.749V139.148H421.084V132.796L417.254 139.148H415.408V130.421H417.072V136.768ZM425.033 139.148V130.421H432.152V139.148H430.487V131.887H426.686V139.148H425.033ZM438.099 139.325C437.281 139.325 436.567 139.137 435.957 138.762C435.348 138.387 434.874 137.862 434.537 137.188C434.2 136.514 434.031 135.726 434.031 134.825C434.031 133.919 434.2 133.128 434.537 132.45C434.874 131.772 435.348 131.245 435.957 130.87C436.567 130.495 437.281 130.308 438.099 130.308C438.918 130.308 439.632 130.495 440.241 130.87C440.851 131.245 441.325 131.772 441.662 132.45C441.999 133.128 442.168 133.919 442.168 134.825C442.168 135.726 441.999 136.514 441.662 137.188C441.325 137.862 440.851 138.387 440.241 138.762C439.632 139.137 438.918 139.325 438.099 139.325ZM438.105 137.898C438.635 137.898 439.075 137.758 439.423 137.478C439.772 137.198 440.029 136.825 440.196 136.359C440.366 135.893 440.452 135.379 440.452 134.819C440.452 134.262 440.366 133.751 440.196 133.285C440.029 132.815 439.772 132.438 439.423 132.154C439.075 131.87 438.635 131.728 438.105 131.728C437.571 131.728 437.128 131.87 436.776 132.154C436.427 132.438 436.168 132.815 435.997 133.285C435.83 133.751 435.747 134.262 435.747 134.819C435.747 135.379 435.83 135.893 435.997 136.359C436.168 136.825 436.427 137.198 436.776 137.478C437.128 137.758 437.571 137.898 438.105 137.898ZM443.013 131.887V130.421H450.376V131.887H447.53V139.148H445.871V131.887H443.013ZM455.528 139.325C454.669 139.325 453.928 139.141 453.307 138.773C452.689 138.402 452.212 137.881 451.875 137.211C451.542 136.537 451.375 135.747 451.375 134.842C451.375 133.948 451.542 133.16 451.875 132.478C452.212 131.796 452.682 131.264 453.284 130.881C453.89 130.499 454.598 130.308 455.409 130.308C455.902 130.308 456.379 130.389 456.841 130.552C457.303 130.715 457.718 130.97 458.085 131.319C458.453 131.667 458.742 132.12 458.955 132.677C459.167 133.23 459.273 133.902 459.273 134.694V135.296H452.335V134.023H457.608C457.608 133.576 457.517 133.181 457.335 132.836C457.153 132.487 456.898 132.213 456.568 132.012C456.242 131.811 455.86 131.711 455.42 131.711C454.943 131.711 454.527 131.828 454.17 132.063C453.818 132.294 453.545 132.597 453.352 132.972C453.163 133.344 453.068 133.747 453.068 134.183V135.177C453.068 135.76 453.17 136.256 453.375 136.665C453.583 137.075 453.873 137.387 454.244 137.603C454.616 137.815 455.049 137.921 455.545 137.921C455.867 137.921 456.161 137.876 456.426 137.785C456.691 137.69 456.92 137.55 457.114 137.364C457.307 137.179 457.455 136.95 457.557 136.677L459.165 136.967C459.036 137.44 458.805 137.855 458.472 138.211C458.142 138.563 457.727 138.838 457.227 139.035C456.731 139.228 456.165 139.325 455.528 139.325ZM461.158 139.148V130.421H462.857V134.08H463.675L466.555 130.421H468.658L465.277 134.665L468.697 139.148H466.589L463.959 135.66H462.857V139.148H461.158ZM471.138 142.421C470.884 142.421 470.653 142.4 470.445 142.359C470.236 142.321 470.081 142.279 469.979 142.234L470.388 140.842C470.698 140.925 470.975 140.961 471.217 140.95C471.46 140.938 471.674 140.847 471.859 140.677C472.049 140.506 472.215 140.228 472.359 139.842L472.57 139.262L469.376 130.421H471.195L473.405 137.194H473.496L475.706 130.421H477.53L473.933 140.313C473.767 140.768 473.554 141.152 473.297 141.467C473.039 141.785 472.732 142.023 472.376 142.183C472.02 142.342 471.607 142.421 471.138 142.421Z" fill="#16293F"/>
<path opacity="0.8" d="M410.506 175.218H408.733C408.665 174.839 408.538 174.506 408.352 174.218C408.167 173.93 407.939 173.686 407.67 173.485C407.402 173.284 407.1 173.133 406.767 173.031C406.438 172.928 406.087 172.877 405.716 172.877C405.045 172.877 404.445 173.046 403.915 173.383C403.388 173.72 402.972 174.214 402.665 174.866C402.362 175.517 402.21 176.313 402.21 177.252C402.21 178.199 402.362 178.998 402.665 179.65C402.972 180.301 403.39 180.794 403.92 181.127C404.451 181.46 405.047 181.627 405.71 181.627C406.078 181.627 406.426 181.578 406.756 181.479C407.089 181.377 407.39 181.228 407.659 181.031C407.928 180.834 408.155 180.593 408.341 180.309C408.53 180.021 408.661 179.692 408.733 179.32L410.506 179.326C410.411 179.898 410.227 180.424 409.955 180.906C409.686 181.383 409.339 181.796 408.915 182.144C408.494 182.489 408.013 182.756 407.472 182.945C406.93 183.135 406.339 183.229 405.699 183.229C404.691 183.229 403.794 182.991 403.006 182.513C402.218 182.032 401.597 181.345 401.142 180.451C400.691 179.557 400.466 178.491 400.466 177.252C400.466 176.01 400.693 174.943 401.148 174.053C401.602 173.159 402.223 172.474 403.011 171.996C403.799 171.515 404.695 171.275 405.699 171.275C406.316 171.275 406.892 171.364 407.426 171.542C407.964 171.716 408.447 171.974 408.875 172.315C409.303 172.652 409.657 173.065 409.938 173.553C410.218 174.038 410.407 174.593 410.506 175.218ZM416.705 183.07V174.343H423.824V183.07H422.159V175.809H418.358V183.07H416.705ZM426.095 186.343V174.343H427.754V175.758H427.896C427.995 175.576 428.137 175.366 428.322 175.127C428.508 174.888 428.766 174.68 429.095 174.502C429.425 174.32 429.86 174.229 430.402 174.229C431.107 174.229 431.735 174.407 432.288 174.763C432.841 175.12 433.275 175.633 433.589 176.303C433.908 176.974 434.067 177.781 434.067 178.724C434.067 179.667 433.91 180.476 433.595 181.15C433.281 181.82 432.849 182.337 432.3 182.701C431.75 183.061 431.124 183.241 430.419 183.241C429.889 183.241 429.455 183.152 429.118 182.974C428.785 182.796 428.523 182.587 428.334 182.349C428.144 182.11 427.999 181.898 427.896 181.712H427.794V186.343H426.095ZM427.76 178.707C427.76 179.32 427.849 179.858 428.027 180.32C428.205 180.782 428.463 181.144 428.8 181.406C429.137 181.663 429.55 181.792 430.038 181.792C430.546 181.792 430.97 181.657 431.311 181.388C431.652 181.116 431.91 180.746 432.084 180.281C432.262 179.815 432.351 179.29 432.351 178.707C432.351 178.131 432.264 177.614 432.089 177.156C431.919 176.697 431.661 176.335 431.317 176.07C430.976 175.805 430.55 175.673 430.038 175.673C429.546 175.673 429.129 175.799 428.788 176.053C428.451 176.307 428.196 176.661 428.021 177.116C427.847 177.57 427.76 178.101 427.76 178.707ZM439.646 183.246C438.828 183.246 438.114 183.059 437.504 182.684C436.894 182.309 436.421 181.784 436.084 181.11C435.747 180.436 435.578 179.648 435.578 178.746C435.578 177.841 435.747 177.049 436.084 176.371C436.421 175.693 436.894 175.167 437.504 174.792C438.114 174.417 438.828 174.229 439.646 174.229C440.464 174.229 441.179 174.417 441.788 174.792C442.398 175.167 442.872 175.693 443.209 176.371C443.546 177.049 443.714 177.841 443.714 178.746C443.714 179.648 443.546 180.436 443.209 181.11C442.872 181.784 442.398 182.309 441.788 182.684C441.179 183.059 440.464 183.246 439.646 183.246ZM439.652 181.82C440.182 181.82 440.622 181.68 440.97 181.4C441.319 181.12 441.576 180.746 441.743 180.281C441.913 179.815 441.999 179.301 441.999 178.741C441.999 178.184 441.913 177.673 441.743 177.207C441.576 176.737 441.319 176.36 440.97 176.076C440.622 175.792 440.182 175.65 439.652 175.65C439.118 175.65 438.675 175.792 438.322 176.076C437.974 176.36 437.714 176.737 437.544 177.207C437.377 177.673 437.294 178.184 437.294 178.741C437.294 179.301 437.377 179.815 437.544 180.281C437.714 180.746 437.974 181.12 438.322 181.4C438.675 181.68 439.118 181.82 439.652 181.82ZM444.759 185.587V181.599H445.469C445.651 181.432 445.804 181.233 445.929 181.002C446.058 180.771 446.166 180.496 446.253 180.178C446.344 179.86 446.42 179.489 446.48 179.065C446.541 178.637 446.594 178.148 446.639 177.599L446.912 174.343H452.844V181.599H454.185V185.587H452.526V183.07H446.44V185.587H444.759ZM447.287 181.599H451.185V175.798H448.435L448.253 177.599C448.166 178.515 448.056 179.311 447.923 179.985C447.791 180.656 447.579 181.193 447.287 181.599ZM458.385 183.263C457.832 183.263 457.332 183.161 456.885 182.957C456.438 182.748 456.084 182.447 455.822 182.053C455.565 181.659 455.436 181.176 455.436 180.604C455.436 180.112 455.531 179.707 455.72 179.388C455.91 179.07 456.165 178.818 456.487 178.633C456.809 178.447 457.169 178.307 457.567 178.212C457.964 178.118 458.37 178.046 458.783 177.996C459.305 177.936 459.73 177.887 460.055 177.849C460.381 177.807 460.618 177.741 460.766 177.65C460.913 177.559 460.987 177.411 460.987 177.207V177.167C460.987 176.671 460.847 176.286 460.567 176.013C460.29 175.741 459.877 175.604 459.328 175.604C458.756 175.604 458.305 175.731 457.976 175.985C457.65 176.235 457.425 176.513 457.3 176.82L455.703 176.457C455.893 175.926 456.169 175.498 456.533 175.173C456.9 174.843 457.322 174.604 457.8 174.457C458.277 174.305 458.779 174.229 459.305 174.229C459.654 174.229 460.023 174.271 460.413 174.354C460.807 174.434 461.175 174.582 461.516 174.798C461.86 175.013 462.143 175.322 462.362 175.724C462.582 176.121 462.692 176.638 462.692 177.275V183.07H461.033V181.877H460.964C460.855 182.097 460.69 182.313 460.47 182.525C460.25 182.737 459.968 182.913 459.624 183.053C459.279 183.193 458.866 183.263 458.385 183.263ZM458.754 181.9C459.224 181.9 459.625 181.807 459.959 181.621C460.296 181.436 460.552 181.193 460.726 180.894C460.904 180.591 460.993 180.267 460.993 179.923V178.798C460.932 178.858 460.815 178.915 460.641 178.968C460.47 179.017 460.275 179.061 460.055 179.099C459.836 179.133 459.622 179.165 459.413 179.195C459.205 179.222 459.031 179.245 458.891 179.263C458.561 179.305 458.26 179.375 457.987 179.474C457.718 179.572 457.502 179.714 457.339 179.9C457.18 180.082 457.101 180.324 457.101 180.627C457.101 181.048 457.256 181.366 457.567 181.582C457.877 181.794 458.273 181.9 458.754 181.9ZM464.398 183.07L467.778 178.604L464.438 174.343H466.415L469.114 177.968H469.722V174.343H471.42V177.968H472.011L474.71 174.343H476.688L473.364 178.604L476.727 183.07H474.71L471.989 179.434H471.42V183.07H469.722V179.434H469.153L466.415 183.07H464.398ZM480.119 180.69L483.966 174.343H485.795V183.07H484.131V176.718L480.301 183.07H478.455V174.343H480.119V180.69ZM498.229 177.974V179.445H493.501V177.974H498.229ZM493.979 174.343V183.07H492.314V174.343H493.979ZM499.416 174.343V183.07H497.757V174.343H499.416ZM505.45 183.246C504.59 183.246 503.85 183.063 503.229 182.695C502.611 182.324 502.134 181.803 501.797 181.133C501.464 180.459 501.297 179.669 501.297 178.763C501.297 177.87 501.464 177.082 501.797 176.4C502.134 175.718 502.604 175.186 503.206 174.803C503.812 174.421 504.52 174.229 505.331 174.229C505.823 174.229 506.301 174.311 506.763 174.474C507.225 174.637 507.64 174.892 508.007 175.241C508.375 175.589 508.664 176.042 508.876 176.599C509.089 177.152 509.195 177.824 509.195 178.616V179.218H502.257V177.945H507.53C507.53 177.498 507.439 177.103 507.257 176.758C507.075 176.409 506.82 176.135 506.49 175.934C506.164 175.733 505.782 175.633 505.342 175.633C504.865 175.633 504.448 175.75 504.092 175.985C503.74 176.216 503.467 176.519 503.274 176.894C503.085 177.265 502.99 177.669 502.99 178.104V179.099C502.99 179.682 503.092 180.178 503.297 180.587C503.505 180.996 503.795 181.309 504.166 181.525C504.537 181.737 504.971 181.843 505.467 181.843C505.789 181.843 506.083 181.798 506.348 181.707C506.613 181.612 506.842 181.472 507.036 181.286C507.229 181.101 507.376 180.871 507.479 180.599L509.087 180.888C508.958 181.362 508.727 181.777 508.393 182.133C508.064 182.485 507.649 182.76 507.149 182.957C506.653 183.15 506.087 183.246 505.45 183.246ZM510.227 185.587V181.599H510.938C511.119 181.432 511.273 181.233 511.398 181.002C511.527 180.771 511.634 180.496 511.722 180.178C511.813 179.86 511.888 179.489 511.949 179.065C512.009 178.637 512.062 178.148 512.108 177.599L512.381 174.343H518.312V181.599H519.653V185.587H517.994V183.07H511.909V185.587H510.227ZM512.756 181.599H516.653V175.798H513.903L513.722 177.599C513.634 178.515 513.525 179.311 513.392 179.985C513.259 180.656 513.047 181.193 512.756 181.599ZM521.314 183.07V174.343H524.933C525.918 174.343 526.698 174.553 527.274 174.974C527.85 175.39 528.138 175.957 528.138 176.673C528.138 177.184 527.975 177.589 527.649 177.888C527.323 178.188 526.892 178.388 526.354 178.491C526.744 178.536 527.102 178.654 527.428 178.843C527.753 179.029 528.015 179.279 528.212 179.593C528.412 179.907 528.513 180.282 528.513 180.718C528.513 181.18 528.393 181.589 528.155 181.945C527.916 182.298 527.57 182.574 527.115 182.775C526.664 182.972 526.121 183.07 525.484 183.07H521.314ZM522.911 181.65H525.484C525.905 181.65 526.234 181.549 526.473 181.349C526.712 181.148 526.831 180.875 526.831 180.531C526.831 180.125 526.712 179.807 526.473 179.576C526.234 179.341 525.905 179.224 525.484 179.224H522.911V181.65ZM522.911 177.979H524.95C525.268 177.979 525.541 177.934 525.768 177.843C526 177.752 526.176 177.623 526.297 177.457C526.422 177.286 526.484 177.085 526.484 176.854C526.484 176.517 526.346 176.254 526.07 176.065C525.793 175.875 525.414 175.781 524.933 175.781H522.911V177.979ZM532.041 180.69L535.888 174.343H537.717V183.07H536.053V176.718L532.223 183.07H530.376V174.343H532.041V180.69ZM539.445 183.07L542.825 178.604L539.484 174.343H541.462L544.161 177.968H544.768V174.343H546.467V177.968H547.058L549.757 174.343H551.734L548.411 178.604L551.774 183.07H549.757L547.036 179.434H546.467V183.07H544.768V179.434H544.2L541.462 183.07H539.445ZM555.166 180.69L559.013 174.343H560.842V183.07H559.178V176.718L555.348 183.07H553.501V174.343H555.166V180.69ZM568.024 180.968L570.842 174.343H572.308L568.655 183.07H567.393L563.814 174.343H565.263L568.024 180.968ZM564.791 174.343V183.07H563.126V174.343H564.791ZM571.303 183.07V174.343H572.956V183.07H571.303ZM578.896 183.246C578.078 183.246 577.364 183.059 576.754 182.684C576.144 182.309 575.671 181.784 575.334 181.11C574.997 180.436 574.828 179.648 574.828 178.746C574.828 177.841 574.997 177.049 575.334 176.371C575.671 175.693 576.144 175.167 576.754 174.792C577.364 174.417 578.078 174.229 578.896 174.229C579.714 174.229 580.429 174.417 581.038 174.792C581.648 175.167 582.122 175.693 582.459 176.371C582.796 177.049 582.964 177.841 582.964 178.746C582.964 179.648 582.796 180.436 582.459 181.11C582.122 181.784 581.648 182.309 581.038 182.684C580.429 183.059 579.714 183.246 578.896 183.246ZM578.902 181.82C579.432 181.82 579.872 181.68 580.22 181.4C580.569 181.12 580.826 180.746 580.993 180.281C581.163 179.815 581.249 179.301 581.249 178.741C581.249 178.184 581.163 177.673 580.993 177.207C580.826 176.737 580.569 176.36 580.22 176.076C579.872 175.792 579.432 175.65 578.902 175.65C578.368 175.65 577.925 175.792 577.572 176.076C577.224 176.36 576.964 176.737 576.794 177.207C576.627 177.673 576.544 178.184 576.544 178.741C576.544 179.301 576.627 179.815 576.794 180.281C576.964 180.746 577.224 181.12 577.572 181.4C577.925 181.68 578.368 181.82 578.902 181.82ZM588.537 183.246C587.692 183.246 586.965 183.055 586.355 182.673C585.749 182.286 585.283 181.754 584.957 181.076C584.632 180.398 584.469 179.621 584.469 178.746C584.469 177.86 584.635 177.078 584.969 176.4C585.302 175.718 585.772 175.186 586.378 174.803C586.984 174.421 587.698 174.229 588.52 174.229C589.183 174.229 589.774 174.353 590.293 174.599C590.812 174.841 591.23 175.182 591.548 175.621C591.87 176.061 592.062 176.574 592.122 177.161H590.469C590.378 176.752 590.17 176.4 589.844 176.104C589.522 175.809 589.09 175.661 588.548 175.661C588.075 175.661 587.66 175.786 587.304 176.036C586.952 176.282 586.677 176.635 586.48 177.093C586.283 177.548 586.185 178.085 586.185 178.707C586.185 179.343 586.281 179.892 586.474 180.354C586.668 180.817 586.94 181.174 587.293 181.428C587.649 181.682 588.067 181.809 588.548 181.809C588.87 181.809 589.162 181.75 589.423 181.633C589.688 181.512 589.91 181.339 590.088 181.116C590.27 180.892 590.397 180.623 590.469 180.309H592.122C592.062 180.873 591.878 181.377 591.571 181.82C591.264 182.263 590.853 182.612 590.338 182.866C589.827 183.12 589.226 183.246 588.537 183.246ZM593.278 175.809V174.343H600.642V175.809H597.795V183.07H596.136V175.809H593.278ZM604.104 180.69L607.95 174.343H609.78V183.07H608.115V176.718L604.286 183.07H602.439V174.343H604.104V180.69Z" fill="#16293F"/>
<path opacity="0.8" d="M400.841 226.988V215.352H402.597V220.409H408.398V215.352H410.159V226.988H408.398V221.914H402.597V226.988H400.841ZM415.119 227.181C414.566 227.181 414.066 227.079 413.619 226.875C413.172 226.666 412.818 226.365 412.557 225.971C412.299 225.577 412.17 225.094 412.17 224.522C412.17 224.03 412.265 223.625 412.455 223.306C412.644 222.988 412.9 222.736 413.222 222.551C413.544 222.365 413.903 222.225 414.301 222.13C414.699 222.036 415.104 221.964 415.517 221.914C416.04 221.854 416.464 221.805 416.79 221.767C417.116 221.725 417.352 221.659 417.5 221.568C417.648 221.477 417.722 221.329 417.722 221.125V221.085C417.722 220.589 417.581 220.204 417.301 219.931C417.025 219.659 416.612 219.522 416.062 219.522C415.491 219.522 415.04 219.649 414.71 219.903C414.384 220.153 414.159 220.431 414.034 220.738L412.438 220.375C412.627 219.844 412.903 219.416 413.267 219.091C413.634 218.761 414.057 218.522 414.534 218.375C415.011 218.223 415.513 218.147 416.04 218.147C416.388 218.147 416.758 218.189 417.148 218.272C417.542 218.352 417.909 218.5 418.25 218.716C418.595 218.931 418.877 219.24 419.097 219.642C419.316 220.039 419.426 220.556 419.426 221.193V226.988H417.767V225.795H417.699C417.589 226.015 417.424 226.231 417.205 226.443C416.985 226.655 416.703 226.831 416.358 226.971C416.013 227.111 415.6 227.181 415.119 227.181ZM415.489 225.818C415.958 225.818 416.36 225.725 416.693 225.539C417.03 225.354 417.286 225.111 417.46 224.812C417.638 224.509 417.727 224.185 417.727 223.841V222.716C417.667 222.776 417.549 222.833 417.375 222.886C417.205 222.935 417.009 222.979 416.79 223.017C416.57 223.051 416.356 223.083 416.148 223.113C415.939 223.14 415.765 223.163 415.625 223.181C415.295 223.223 414.994 223.293 414.722 223.392C414.453 223.49 414.237 223.632 414.074 223.818C413.915 224 413.835 224.242 413.835 224.545C413.835 224.966 413.991 225.284 414.301 225.5C414.612 225.712 415.008 225.818 415.489 225.818ZM431.838 221.892V223.363H427.111V221.892H431.838ZM427.588 218.261V226.988H425.923V218.261H427.588ZM433.026 218.261V226.988H431.366V218.261H433.026ZM437.838 227.181C437.285 227.181 436.785 227.079 436.338 226.875C435.891 226.666 435.537 226.365 435.276 225.971C435.018 225.577 434.889 225.094 434.889 224.522C434.889 224.03 434.984 223.625 435.173 223.306C435.363 222.988 435.618 222.736 435.94 222.551C436.262 222.365 436.622 222.225 437.02 222.13C437.418 222.036 437.823 221.964 438.236 221.914C438.759 221.854 439.183 221.805 439.509 221.767C439.834 221.725 440.071 221.659 440.219 221.568C440.366 221.477 440.44 221.329 440.44 221.125V221.085C440.44 220.589 440.3 220.204 440.02 219.931C439.743 219.659 439.33 219.522 438.781 219.522C438.209 219.522 437.759 219.649 437.429 219.903C437.103 220.153 436.878 220.431 436.753 220.738L435.156 220.375C435.346 219.844 435.622 219.416 435.986 219.091C436.353 218.761 436.776 218.522 437.253 218.375C437.73 218.223 438.232 218.147 438.759 218.147C439.107 218.147 439.476 218.189 439.866 218.272C440.26 218.352 440.628 218.5 440.969 218.716C441.313 218.931 441.596 219.24 441.815 219.642C442.035 220.039 442.145 220.556 442.145 221.193V226.988H440.486V225.795H440.418C440.308 226.015 440.143 226.231 439.923 226.443C439.704 226.655 439.421 226.831 439.077 226.971C438.732 227.111 438.319 227.181 437.838 227.181ZM438.207 225.818C438.677 225.818 439.079 225.725 439.412 225.539C439.749 225.354 440.005 225.111 440.179 224.812C440.357 224.509 440.446 224.185 440.446 223.841V222.716C440.385 222.776 440.268 222.833 440.094 222.886C439.923 222.935 439.728 222.979 439.509 223.017C439.289 223.051 439.075 223.083 438.866 223.113C438.658 223.14 438.484 223.163 438.344 223.181C438.014 223.223 437.713 223.293 437.44 223.392C437.171 223.49 436.955 223.632 436.793 223.818C436.634 224 436.554 224.242 436.554 224.545C436.554 224.966 436.709 225.284 437.02 225.5C437.33 225.712 437.726 225.818 438.207 225.818ZM444.408 226.988V218.261H446.107V221.92H446.925L449.805 218.261H451.908L448.527 222.505L451.947 226.988H449.839L447.209 223.5H446.107V226.988H444.408ZM456.584 227.164C455.766 227.164 455.052 226.977 454.442 226.602C453.832 226.227 453.358 225.702 453.021 225.028C452.684 224.354 452.516 223.566 452.516 222.664C452.516 221.759 452.684 220.967 453.021 220.289C453.358 219.611 453.832 219.085 454.442 218.71C455.052 218.335 455.766 218.147 456.584 218.147C457.402 218.147 458.116 218.335 458.726 218.71C459.336 219.085 459.809 219.611 460.146 220.289C460.483 220.967 460.652 221.759 460.652 222.664C460.652 223.566 460.483 224.354 460.146 225.028C459.809 225.702 459.336 226.227 458.726 226.602C458.116 226.977 457.402 227.164 456.584 227.164ZM456.589 225.738C457.12 225.738 457.559 225.598 457.908 225.318C458.256 225.038 458.514 224.664 458.68 224.199C458.851 223.733 458.936 223.219 458.936 222.659C458.936 222.102 458.851 221.591 458.68 221.125C458.514 220.655 458.256 220.278 457.908 219.994C457.559 219.71 457.12 219.568 456.589 219.568C456.055 219.568 455.612 219.71 455.26 219.994C454.911 220.278 454.652 220.655 454.482 221.125C454.315 221.591 454.232 222.102 454.232 222.659C454.232 223.219 454.315 223.733 454.482 224.199C454.652 224.664 454.911 225.038 455.26 225.318C455.612 225.598 456.055 225.738 456.589 225.738ZM462.548 226.988V218.261H469.668V226.988H468.003V219.727H464.202V226.988H462.548ZM471.251 226.988L471.246 225.517H471.558C471.801 225.517 472.003 225.466 472.166 225.363C472.333 225.257 472.469 225.079 472.575 224.829C472.681 224.579 472.763 224.234 472.82 223.795C472.876 223.352 472.918 222.795 472.945 222.125L473.098 218.261H479.189V226.988H477.524V219.727H474.672L474.536 222.693C474.501 223.413 474.428 224.041 474.314 224.579C474.204 225.117 474.043 225.566 473.831 225.926C473.619 226.282 473.346 226.549 473.013 226.727C472.679 226.901 472.274 226.988 471.797 226.988H471.251ZM485.216 227.164C484.356 227.164 483.616 226.981 482.994 226.613C482.377 226.242 481.9 225.721 481.562 225.051C481.229 224.377 481.062 223.587 481.062 222.681C481.062 221.788 481.229 221 481.562 220.318C481.9 219.636 482.369 219.104 482.972 218.721C483.578 218.339 484.286 218.147 485.097 218.147C485.589 218.147 486.066 218.229 486.528 218.392C486.991 218.555 487.405 218.81 487.773 219.159C488.14 219.507 488.43 219.96 488.642 220.517C488.854 221.07 488.96 221.742 488.96 222.534V223.136H482.023V221.863H487.295C487.295 221.416 487.205 221.02 487.023 220.676C486.841 220.327 486.585 220.053 486.256 219.852C485.93 219.651 485.547 219.551 485.108 219.551C484.631 219.551 484.214 219.668 483.858 219.903C483.506 220.134 483.233 220.437 483.04 220.812C482.85 221.183 482.756 221.587 482.756 222.022V223.017C482.756 223.6 482.858 224.096 483.062 224.505C483.271 224.914 483.561 225.227 483.932 225.443C484.303 225.655 484.737 225.761 485.233 225.761C485.555 225.761 485.848 225.716 486.114 225.625C486.379 225.53 486.608 225.39 486.801 225.204C486.994 225.019 487.142 224.789 487.244 224.517L488.852 224.806C488.723 225.28 488.492 225.695 488.159 226.051C487.83 226.403 487.415 226.678 486.915 226.875C486.419 227.068 485.852 227.164 485.216 227.164ZM496.76 221.892V223.363H492.033V221.892H496.76ZM492.51 218.261V226.988H490.845V218.261H492.51ZM497.947 218.261V226.988H496.288V218.261H497.947ZM501.885 224.608L505.732 218.261H507.561V226.988H505.896V220.636L502.067 226.988H500.22V218.261H501.885V224.608ZM515.05 226.988V219.71H512.959C512.463 219.71 512.076 219.825 511.8 220.056C511.523 220.288 511.385 220.591 511.385 220.966C511.385 221.337 511.512 221.636 511.766 221.863C512.023 222.087 512.383 222.199 512.845 222.199H515.544V223.574H512.845C512.201 223.574 511.644 223.467 511.175 223.255C510.709 223.039 510.349 222.734 510.095 222.341C509.845 221.947 509.72 221.481 509.72 220.943C509.72 220.394 509.849 219.92 510.107 219.522C510.368 219.121 510.741 218.81 511.226 218.591C511.714 218.371 512.292 218.261 512.959 218.261H516.646V226.988H515.05ZM509.322 226.988L511.783 222.579H513.521L511.061 226.988H509.322Z" fill="#16293F"/>
</svg>
