<svg width="55" height="55" viewBox="0 0 55 55" fill="none" xmlns="http://www.w3.org/2000/svg">
<path d="M6.875 22.0919C6.875 21.1662 7.30242 20.2922 8.03318 19.7239L25.6582 6.01554C26.7415 5.17294 28.2585 5.17294 29.3418 6.01554L46.9668 19.7239C47.6976 20.2922 48.125 21.1662 48.125 22.0919V45.833C48.125 47.0486 47.6421 48.2144 46.7826 49.0739C45.923 49.9335 44.7572 50.4163 43.5417 50.4163H11.4583C10.2428 50.4163 9.07697 49.9335 8.21743 49.0739C7.35789 48.2144 6.875 47.0486 6.875 45.833V22.0919Z" stroke="#293389" stroke-width="2" stroke-linecap="round" stroke-linejoin="round"/>
<path d="M20.625 50.4167V30.5C20.625 28.8431 21.9681 27.5 23.625 27.5H31.375C33.0319 27.5 34.375 28.8431 34.375 30.5V50.4167" stroke="#293389" stroke-width="2" stroke-linecap="round" stroke-linejoin="round"/>
</svg>
