<svg width="48" height="14" viewBox="0 0 48 14" fill="none" xmlns="http://www.w3.org/2000/svg">
<g opacity="0.8" clip-path="url(#clip0_2038_1223)">
<path d="M37.1982 10.9649L39.5716 13.5784H45.6015L43.471 11.3832L46.9085 8.38153V0.582031H37.8003L32.3555 5.4536V13.582H37.1982V10.9649ZM37.2233 4.91233H42.0408V9.21804H37.2233V4.91233Z" fill="#16293F"/>
<path d="M21.8308 13.5764H15.5078V5.4812L20.9777 0.609375H30.0608V13.5764H25.193V10.5745L21.8308 13.5764ZM25.193 4.93989H20.3755V9.24582H25.193V4.93989Z" fill="#16293F"/>
<path d="M11.2733 0.589844L8.11328 3.42622V13.5773H12.9408V9.3328V0.589844H11.2733Z" fill="#16293F"/>
<path d="M0.828125 0.617188V4.5577H3.49707L0.828125 6.88516V13.5795H5.69579V0.617188H0.828125Z" fill="#16293F"/>
</g>
<defs>
<clipPath id="clip0_2038_1223">
<rect width="46.9633" height="13" fill="white" transform="translate(0.828125 0.582031)"/>
</clipPath>
</defs>
</svg>
