<svg width="21" height="20" viewBox="0 0 21 20" fill="none" xmlns="http://www.w3.org/2000/svg">
<path d="M7.47659 2.69922C5.21497 2.69922 3.375 4.53918 3.375 6.80078V13.3633C3.375 15.6249 5.21497 17.4648 7.47659 17.4648H14.0391C16.3007 17.4648 18.1407 15.6249 18.1407 13.3633V6.80078C18.1407 4.53918 16.3007 2.69922 14.0391 2.69922H7.47659ZM7.47659 4.33984H14.0391C15.3959 4.33984 16.5001 5.44398 16.5001 6.80078V13.3633C16.5001 14.7201 15.3959 15.8242 14.0391 15.8242H7.47659C6.11978 15.8242 5.01563 14.7201 5.01563 13.3633V6.80078C5.01563 5.44398 6.11978 4.33984 7.47659 4.33984ZM14.8594 5.16016C14.6419 5.16016 14.4332 5.24658 14.2794 5.40042C14.1256 5.55426 14.0391 5.76291 14.0391 5.98047C14.0391 6.19803 14.1256 6.40668 14.2794 6.56052C14.4332 6.71435 14.6419 6.80078 14.8594 6.80078C15.077 6.80078 15.2857 6.71435 15.4395 6.56052C15.5933 6.40668 15.6798 6.19803 15.6798 5.98047C15.6798 5.76291 15.5933 5.55426 15.4395 5.40042C15.2857 5.24658 15.077 5.16016 14.8594 5.16016ZM10.7579 5.98047C8.49624 5.98047 6.65627 7.82043 6.65627 10.082C6.65627 12.3436 8.49624 14.1836 10.7579 14.1836C13.0195 14.1836 14.8594 12.3436 14.8594 10.082C14.8594 7.82043 13.0195 5.98047 10.7579 5.98047ZM10.7579 7.62109C12.1147 7.62109 13.2188 8.72523 13.2188 10.082C13.2188 11.4388 12.1147 12.543 10.7579 12.543C9.40105 12.543 8.2969 11.4388 8.2969 10.082C8.2969 8.72523 9.40105 7.62109 10.7579 7.62109Z" fill="white"/>
</svg>
