<svg width="27" height="28" viewBox="0 0 27 28" fill="none" xmlns="http://www.w3.org/2000/svg">
<path d="M17.1159 8.53581L9.76935 12.2091M9.76935 12.2091C9.21525 11.103 8.0713 10.3438 6.75 10.3438C4.88604 10.3438 3.375 11.8548 3.375 13.7188C3.375 15.5827 4.88604 17.0938 6.75 17.0938C8.0713 17.0938 9.21525 16.3345 9.76935 15.2284M9.76935 12.2091C9.99692 12.6633 10.125 13.1761 10.125 13.7188C10.125 14.2614 9.99692 14.7742 9.76935 15.2284M17.1159 18.9017L9.76935 15.2284M23.625 6.96875C23.625 8.83271 22.114 10.3438 20.25 10.3438C18.386 10.3438 16.875 8.83271 16.875 6.96875C16.875 5.10479 18.386 3.59375 20.25 3.59375C22.114 3.59375 23.625 5.10479 23.625 6.96875ZM23.625 20.4688C23.625 22.3327 22.114 23.8438 20.25 23.8438C18.386 23.8438 16.875 22.3327 16.875 20.4688C16.875 18.6048 18.386 17.0938 20.25 17.0938C22.114 17.0938 23.625 18.6048 23.625 20.4688Z" stroke="#404F60" stroke-width="1.5" stroke-linecap="round"/>
</svg>
