<svg width="20" height="21" viewBox="0 0 20 21" fill="none" xmlns="http://www.w3.org/2000/svg">
<path d="M10.7907 14.8059L8.29237 17.2663C8.29237 17.2663 8.18372 17.3501 8.0386 17.3538C7.98829 17.3553 7.93433 17.3472 7.87891 17.3224L8.58187 12.9727L10.7907 14.8059Z" fill="white"/>
<path d="M18.776 3.49875L16.0446 17.4457C16.0446 17.4457 15.9272 18.0831 15.1368 18.0831C14.7168 18.0831 14.5002 17.8833 14.5002 17.8833L8.58375 12.9735L5.68896 11.5143L1.97385 10.5262C1.97385 10.5262 1.3125 10.3352 1.3125 9.78824C1.3125 9.33248 1.99281 9.11518 1.99281 9.11518L17.5357 2.94017C17.535 2.93944 18.0104 2.7688 18.3568 2.76953C18.5697 2.76953 18.8125 2.86069 18.8125 3.13414C18.8125 3.31645 18.776 3.49875 18.776 3.49875Z" fill="white"/>
<path d="M15.8214 5.83035C15.6982 5.66992 15.4707 5.64075 15.3102 5.76253L5.6875 11.5212C5.6875 11.5212 7.22323 15.8177 7.45731 16.5615C7.69212 17.306 7.88025 17.3235 7.88025 17.3235L8.58322 12.9738L15.7529 6.3408C15.9133 6.21902 15.9432 5.99078 15.8214 5.83035Z" fill="#293389"/>
</svg>
