<svg width="21" height="21" viewBox="0 0 21 21" fill="none" xmlns="http://www.w3.org/2000/svg">
<path d="M11.0855 3.15684C11.8915 3.14453 12.6914 3.15069 13.4912 3.14453C13.5404 4.08624 13.8788 5.04641 14.568 5.71114C15.2571 6.39434 16.2292 6.70824 17.1767 6.81287V9.29331C16.2907 9.26254 15.3986 9.07789 14.5926 8.69628C14.2419 8.53626 13.9158 8.33314 13.5958 8.12388C13.5897 9.92112 13.602 11.7184 13.5835 13.5094C13.5343 14.3711 13.2513 15.2267 12.7529 15.9345C11.9469 17.1162 10.5502 17.8856 9.1166 17.9102C8.23676 17.9595 7.35691 17.7194 6.60628 17.2763C5.36342 16.5438 4.48972 15.2021 4.36052 13.7618C4.34821 13.454 4.34206 13.1463 4.35436 12.8447C4.46511 11.6753 5.04347 10.5551 5.94178 9.79186C6.96314 8.90555 8.39058 8.48086 9.72573 8.73321C9.73803 9.64414 9.70112 10.5551 9.70112 11.466C9.09199 11.269 8.37827 11.3244 7.84298 11.6937C7.45536 11.9461 7.16003 12.3339 7.00621 12.7709C6.877 13.0848 6.91391 13.4294 6.92007 13.7618C7.06773 14.7712 8.03987 15.6206 9.07353 15.5283C9.76264 15.5221 10.421 15.122 10.7779 14.5373C10.8948 14.3342 11.024 14.1249 11.0301 13.8849C11.0916 12.7832 11.067 11.6876 11.0732 10.5858C11.0793 8.10541 11.067 5.63113 11.0855 3.15684Z" fill="white"/>
</svg>
