<svg width="55" height="55" viewBox="0 0 55 55" fill="none" xmlns="http://www.w3.org/2000/svg">
<path fill-rule="evenodd" clip-rule="evenodd" d="M38.9484 9.2747C39.3392 9.66656 39.9739 9.66654 40.3647 9.27466L43.2664 6.36449C43.6571 5.9726 44.2919 5.97259 44.6826 6.36445L48.8698 10.5634C49.2591 10.9538 49.2589 11.5857 48.8694 11.9759L29.9567 30.9242C29.6565 31.2249 29.583 31.6816 29.7461 32.074C32.0114 37.5248 30.1833 43.8689 25.276 47.263C20.1731 50.7924 13.2602 50.0808 8.98328 45.5858C4.70637 41.0909 4.33909 34.1511 8.11764 29.2299C11.7431 24.508 18.1494 22.9935 23.4739 25.5028C23.8756 25.6922 24.3579 25.6262 24.6715 25.3117L34.4994 15.4559C34.8885 15.0656 34.8885 14.4342 34.4996 14.0439L31.2867 10.8201C30.8977 10.4298 30.8978 9.79826 31.287 9.40805L34.4763 6.21004C34.867 5.81821 35.5017 5.81823 35.8924 6.21007L38.9484 9.2747Z" stroke="#293389" stroke-width="2" stroke-linecap="round" stroke-linejoin="round"/>
<path fill-rule="evenodd" clip-rule="evenodd" d="M14.5253 40.5218C12.5616 38.5524 12.5647 35.3645 14.5322 33.3989C16.4997 31.4332 19.6877 31.4332 21.6552 33.3989C23.6227 35.3645 23.6257 38.5524 21.662 40.5218C19.6865 42.481 16.5009 42.481 14.5253 40.5218Z" stroke="#293389" stroke-width="2" stroke-linecap="round" stroke-linejoin="round"/>
</svg>
