<svg width="82" height="13" viewBox="0 0 82 13" fill="none" xmlns="http://www.w3.org/2000/svg">
<path d="M8.76735 7.2333L2.99062 0.0620117H0.613281L7.56757 8.69496L4.85695 12.0522H7.25651L16.9214 0.0620117H14.5441L8.76735 7.2333Z" fill="#16293F"/>
<path d="M26.7653 0.0620117H19.5V12.0522H21.4774V8.76348H26.7653C31.0757 8.76348 31.9866 6.41111 31.9866 4.42416C31.9866 2.43722 31.0757 0.0620117 26.7653 0.0620117ZM26.7653 6.89072H21.4774V1.93477H26.7653C29.6759 1.93477 30.0092 3.35075 30.0092 4.42416C30.0092 5.47473 29.6759 6.89072 26.7653 6.89072Z" fill="#16293F"/>
<path d="M43.2488 4.0358H37.161V1.91182H46.7593V0.0390625H35.1836V12.0293H43.2488C47.1592 12.0293 47.9813 9.85962 47.9813 8.03254C47.9813 6.2283 47.1592 4.0358 43.2488 4.0358ZM37.161 5.8172H43.1821C45.715 5.8172 46.0038 7.09616 46.0038 8.03254C46.0038 8.99176 45.715 10.2479 43.1821 10.2479H37.161V5.8172Z" fill="#16293F"/>
<path d="M56.7123 0.0620117L49.6914 12.0522H51.891L53.5574 9.24308H61.7337L63.4 12.0522H65.5996L58.5787 0.0620117H56.7123ZM54.6683 7.39317L57.6455 2.41438L60.6228 7.39317H54.6683Z" fill="#16293F"/>
<path d="M80.0188 5.10932H70.3094V0.0620117H68.332V12.0522H70.3094V7.02775H80.0188V12.0522H81.9962V0.0620117H80.0188V5.10932Z" fill="#16293F"/>
</svg>
