<svg width="173" height="30" viewBox="0 0 173 30" fill="none" xmlns="http://www.w3.org/2000/svg">
<g clip-path="url(#clip0_2012_6115)">
<path d="M77.1391 9.00245L80.7355 6.25781H68.6953V22.6988H80.7355V19.9541H72.1354V15.7564H79.4846V13.0118H72.1354V9.00245H77.1391Z" fill="#21A038"/>
<path d="M59.602 12.662H55.4323V9.00245H62.104L65.7003 6.25781H51.9922V22.6988H59.159C63.1724 22.6988 65.4918 20.8152 65.4918 17.5324C65.4918 14.3841 63.4069 12.662 59.602 12.662ZM59.0287 19.9541H55.4323V15.4066H59.0287C61.2179 15.4066 62.2343 16.16 62.2343 17.6938C62.2343 19.2276 61.1397 19.9541 59.0287 19.9541Z" fill="#21A038"/>
<path d="M90.4826 6.25781H83.9414V22.6988H87.3813V18.0436H90.5087C94.6784 18.0436 97.2846 15.7833 97.2846 12.1507C97.2846 8.5181 94.6784 6.25781 90.4826 6.25781ZM90.4045 15.299H87.3554V9.00245H90.4045C92.6197 9.00245 93.8185 10.1326 93.8185 12.1507C93.8185 14.1688 92.6197 15.299 90.4045 15.299Z" fill="#21A038"/>
<path d="M46.1006 19.1511C45.1885 19.6624 44.1721 19.9315 43.1296 19.9315C40.0284 19.9315 37.7871 17.6443 37.7871 14.4961C37.7871 11.3478 40.0284 9.06061 43.1296 9.06061C44.2502 9.0337 45.3448 9.41041 46.257 10.0831L48.7328 8.19953L48.5764 8.03808C47.1431 6.71957 45.2145 6.04688 43.0254 6.04688C40.6538 6.04688 38.4907 6.88103 36.9271 8.38789C35.3633 9.94859 34.4773 12.1282 34.5295 14.3884C34.5034 16.6757 35.3633 18.8822 36.9271 20.4965C38.5689 22.0843 40.758 22.9721 42.9993 22.9184C45.4751 22.9184 47.6382 22.0304 49.0976 20.4159L46.8824 18.7207L46.1006 19.1511Z" fill="#21A038"/>
<path d="M138.646 6.28472V22.7256H142.087V15.9986H149.41V22.7256H152.85V6.28472H149.41V13.0387H142.087V6.28472H138.646ZM132.731 22.7256H136.353L129.629 6.28472H126.137L119.283 22.7256H122.749L124.13 19.4159H131.428L132.731 22.7256ZM125.173 16.6713L127.831 10.0788L130.333 16.6713H125.173ZM160.564 16.0793H162.701L167.965 22.6988H172.395L165.359 14.1958L171.509 6.25781H167.575L162.466 13.3078H160.564V6.25781H157.124V22.6988H160.564V16.0793ZM107.921 12.6889V9.02936H116.912V6.28472H104.48V22.7256H111.647C115.661 22.7256 117.98 20.8422 117.98 17.5593C117.98 14.411 115.895 12.6889 112.09 12.6889H107.921ZM107.921 19.9811V15.4335H111.517C113.706 15.4335 114.722 16.187 114.722 17.7207C114.722 19.2546 113.654 20.0079 111.517 20.0079H107.921V19.9811Z" fill="#21A038"/>
<path d="M23.768 6.15625C24.3935 6.99042 24.9147 7.9053 25.3578 8.87399L13.3176 18.0497L8.26172 14.7669V10.8383L13.2915 14.0942L23.768 6.15625Z" fill="#21A038"/>
<path d="M3.12727 14.4926C3.12727 14.3042 3.12727 14.1428 3.15334 13.9544L0.104186 13.793C0.104186 14.0082 0.078125 14.2504 0.078125 14.4657C0.078125 18.2329 1.56361 21.6502 3.96122 24.1258L6.12429 21.8923C4.27396 20.0087 3.12727 17.3987 3.12727 14.4926Z" fill="url(#paint0_linear_2012_6115)"/>
<path d="M13.2908 3.99983C13.4732 3.99983 13.6296 3.99983 13.812 4.02674L13.9684 0.87847C13.7599 0.87847 13.5254 0.851562 13.3169 0.851562C9.66831 0.851562 6.35856 2.38534 3.96094 4.86089L6.12401 7.09429C7.94828 5.1838 10.5023 3.99983 13.2908 3.99983Z" fill="url(#paint1_linear_2012_6115)"/>
<path d="M13.2909 24.989C13.1084 24.989 12.9521 24.989 12.7696 24.9621L12.6133 28.1104C12.8218 28.1104 13.0563 28.1372 13.2648 28.1372C16.9133 28.1372 20.2231 26.6035 22.6207 24.1279L20.4576 21.8945C18.6333 23.8319 16.1055 24.989 13.2909 24.989Z" fill="url(#paint2_linear_2012_6115)"/>
<path d="M19.0225 5.82526L21.6025 3.86095C19.3352 1.97737 16.4425 0.820312 13.2891 0.820312V3.96858C15.4261 3.99549 17.4068 4.66819 19.0225 5.82526Z" fill="url(#paint3_linear_2012_6115)"/>
<path d="M26.5282 14.4955C26.5282 13.6614 26.45 12.8541 26.3197 12.0469L23.4791 14.2264C23.4791 14.3072 23.4791 14.4148 23.4791 14.4955C23.4791 17.59 22.1759 20.3616 20.1172 22.272L22.1759 24.613C24.8341 22.1375 26.5282 18.5049 26.5282 14.4955Z" fill="#21A038"/>
<path d="M13.2912 24.9868C10.2941 24.9868 7.60984 23.6414 5.75951 21.5156L3.49219 23.6414C5.91587 26.4129 9.40805 28.135 13.2912 28.135V24.9868Z" fill="url(#paint4_linear_2012_6115)"/>
<path d="M6.48916 6.70822L4.43034 4.36719C1.74604 6.86966 0.078125 10.4754 0.078125 14.4847H3.12727C3.12727 11.4172 4.43034 8.61871 6.48916 6.70822Z" fill="url(#paint5_linear_2012_6115)"/>
</g>
<defs>
<linearGradient id="paint0_linear_2012_6115" x1="3.63585" y1="23.7427" x2="0.384231" y2="14.4995" gradientUnits="userSpaceOnUse">
<stop offset="0.1444" stop-color="#F2E913"/>
<stop offset="0.3037" stop-color="#E7E518"/>
<stop offset="0.5823" stop-color="#CADB26"/>
<stop offset="0.891" stop-color="#A3CD39"/>
</linearGradient>
<linearGradient id="paint1_linear_2012_6115" x1="4.83009" y1="4.50564" x2="12.7826" y2="1.52534" gradientUnits="userSpaceOnUse">
<stop offset="0.0592" stop-color="#0FA8E0"/>
<stop offset="0.5385" stop-color="#0099F9"/>
<stop offset="0.9234" stop-color="#0291EB"/>
</linearGradient>
<linearGradient id="paint2_linear_2012_6115" x1="12.4342" y1="25.4598" x2="21.879" y2="23.3607" gradientUnits="userSpaceOnUse">
<stop offset="0.1226" stop-color="#A3CD39"/>
<stop offset="0.2846" stop-color="#86C339"/>
<stop offset="0.8693" stop-color="#21A038"/>
</linearGradient>
<linearGradient id="paint3_linear_2012_6115" x1="12.6626" y1="2.82553" x2="20.5298" y2="5.21269" gradientUnits="userSpaceOnUse">
<stop offset="0.0566" stop-color="#0291EB"/>
<stop offset="0.79" stop-color="#0C8ACB"/>
</linearGradient>
<linearGradient id="paint4_linear_2012_6115" x1="4.26748" y1="24.1402" x2="12.7323" y2="27.2506" gradientUnits="userSpaceOnUse">
<stop offset="0.1324" stop-color="#F2E913"/>
<stop offset="0.2977" stop-color="#EBE716"/>
<stop offset="0.5306" stop-color="#D9E01F"/>
<stop offset="0.8023" stop-color="#BBD62D"/>
<stop offset="0.9829" stop-color="#A3CD39"/>
</linearGradient>
<linearGradient id="paint5_linear_2012_6115" x1="2.41445" y1="14.865" x2="5.92598" y2="5.88164" gradientUnits="userSpaceOnUse">
<stop offset="0.0698" stop-color="#A3CD39"/>
<stop offset="0.2599" stop-color="#81C55F"/>
<stop offset="0.9216" stop-color="#0FA8E0"/>
</linearGradient>
<clipPath id="clip0_2012_6115">
<rect width="172.524" height="29.1769" fill="white" transform="translate(0 0.582031)"/>
</clipPath>
</defs>
</svg>
