<svg width="21" height="20" viewBox="0 0 21 20" fill="none" xmlns="http://www.w3.org/2000/svg">
<path d="M19.6061 14.6771C18.869 13.3505 16.9704 11.7566 16.1866 11.0629C15.9721 10.873 15.9491 10.5445 16.1444 10.3344C17.6402 8.72693 18.8366 6.87987 19.2484 5.76376C19.4301 5.27072 19.054 4.74979 18.5241 4.74979H16.9848C16.4774 4.74979 16.1804 4.93191 16.0389 5.22191C14.7958 7.76956 13.7294 8.87214 12.9829 9.51654C12.5649 9.8775 11.9132 9.57848 11.9132 9.02924C11.9132 7.97096 11.9132 6.603 11.9132 5.63291C11.9132 5.16243 11.5285 4.78178 11.0539 4.78178L8.24187 4.74979C7.88791 4.74979 7.6857 5.15054 7.89816 5.43151L8.36246 6.09806C8.53719 6.32899 8.63152 6.60997 8.63152 6.89833L8.62906 9.90006C8.62906 10.4222 7.99619 10.6774 7.62049 10.3115C6.34941 9.07354 5.2465 6.54557 4.84947 5.33676C4.73463 4.98687 4.40691 4.75061 4.03531 4.74979L2.51896 4.74609C1.95008 4.74609 1.53418 5.28549 1.68881 5.82857C3.07431 10.6921 5.91711 15.319 10.9834 15.8207C11.4825 15.8699 11.9132 15.4679 11.9132 14.9703V13.3928C11.9132 12.9403 12.268 12.5515 12.7241 12.54C12.7401 12.5396 12.7561 12.5396 12.772 12.5396C14.112 12.5396 15.6128 14.49 16.1378 15.4023C16.2887 15.6648 16.5709 15.8248 16.8761 15.8248H18.9158C19.5109 15.8248 19.8928 15.1935 19.6061 14.6771Z" fill="white"/>
</svg>
