<svg width="77" height="29" viewBox="0 0 77 29" fill="none" xmlns="http://www.w3.org/2000/svg">
<g clip-path="url(#clip0_2012_6144)">
<path d="M22.0896 4.16239H3.95158L5.25824 0.582031H23.3963L22.0896 4.16239ZM21.4363 5.95257H3.29008L1.98343 9.53293H20.1215L21.4363 5.95257ZM19.4763 11.3068H1.3301L0.0234375 14.8872H18.1452L19.4763 11.3068Z" fill="#009FDF"/>
<path d="M65.3089 23.8396H68.5755C69.0398 23.8949 69.5107 23.8354 69.9465 23.6666C70.3823 23.4977 70.7697 23.2246 71.0745 22.8713C71.5226 22.287 71.7483 21.5633 71.7115 20.8289C71.7422 20.3615 71.656 19.8939 71.4608 19.4679C71.2655 19.0418 70.9673 18.6707 70.5927 18.3877C69.9863 17.9924 69.2652 17.8092 68.5429 17.867H65.3089V23.8396ZM61.0214 27.4444V5.946H75.0598L73.8267 9.55076H65.3089V14.311H68.7797C71.5809 14.311 73.0345 14.9783 74.039 15.8327C74.7572 16.4663 75.322 17.2538 75.6912 18.136C76.0603 19.0182 76.2242 19.9722 76.1705 20.9265C76.2257 21.9542 76.0222 22.9793 75.5787 23.9087C75.1351 24.8381 74.4655 25.6423 73.6307 26.2483C72.2832 27.1759 70.8704 27.4363 67.9957 27.4363L61.0214 27.4444ZM48.5918 27.4444V9.54263H42.3525V5.946H59.6739L58.4408 9.55076H52.9201V27.4526L48.5918 27.4444ZM31.3031 14.5551H33.7531C34.2542 14.5892 34.7575 14.5509 35.2476 14.4412C35.7572 14.279 36.1964 13.9491 36.4932 13.5055C36.7899 13.062 36.9266 12.5312 36.8809 12.0001C36.9489 11.4723 36.8201 10.9381 36.5191 10.4986C36.218 10.0592 35.7656 9.74505 35.2476 9.61586C34.7125 9.4921 34.1629 9.4428 33.6143 9.46939H31.3031V14.5551ZM31.3031 18.2738V23.9129H34.2921C35.1158 24.0067 35.944 23.7793 36.6032 23.2782C36.907 22.9977 37.145 22.654 37.3003 22.2714C37.4556 21.8889 37.5243 21.4769 37.5016 21.0649C37.5146 20.4065 37.3141 19.7616 36.9299 19.2259C36.2929 18.4122 35.5089 18.2575 34.1696 18.2575L31.3031 18.2738ZM38.2121 16.0035V16.0768C38.9402 16.3561 39.6206 16.7458 40.2292 17.2323C40.8444 17.741 41.3306 18.387 41.6485 19.1179C41.9663 19.8488 42.1068 20.6441 42.0585 21.4392C42.0585 24.3767 40.4905 26.5005 37.9181 27.1352C36.8926 27.385 35.8365 27.4864 34.7821 27.4363H27.0156V5.946H33.9246C35.0219 5.90602 36.1199 6.00722 37.1912 6.24707C39.6902 6.91432 41.3317 8.63126 41.3317 11.3409C41.3521 11.987 41.2403 12.6304 41.003 13.2319C40.7657 13.8335 40.408 14.3806 39.9515 14.8399C39.4668 15.3303 38.8895 15.7202 38.2529 15.9873L38.2121 16.0035Z" fill="#0A2973"/>
</g>
<defs>
<clipPath id="clip0_2012_6144">
<rect width="76.6854" height="27.9963" fill="white" transform="translate(0 0.582031)"/>
</clipPath>
</defs>
</svg>
