<svg width="21" height="20" viewBox="0 0 21 20" fill="none" xmlns="http://www.w3.org/2000/svg">
<path d="M18.6289 14.1433C18.4648 15.0047 17.7676 15.661 16.9063 15.784C15.5527 15.9891 13.2969 16.2352 10.7539 16.2352C8.25195 16.2352 5.99609 15.9891 4.60156 15.784C3.74023 15.661 3.04297 15.0047 2.87891 14.1433C2.71484 13.1999 2.55078 11.8052 2.55078 10.0825C2.55078 8.35968 2.71484 6.96505 2.87891 6.02163C3.04297 5.16024 3.74023 4.50395 4.60156 4.38089C5.95508 4.1758 8.21094 3.92969 10.7539 3.92969C13.2969 3.92969 15.5117 4.1758 16.9063 4.38089C17.7676 4.50395 18.4648 5.16024 18.6289 6.02163C18.793 6.96505 18.998 8.35968 18.998 10.0825C18.957 11.8052 18.793 13.1999 18.6289 14.1433Z" fill="white"/>
<path d="M9.11328 12.9535V7.21094L14.0355 10.0822L9.11328 12.9535Z" fill="#293389"/>
</svg>
